<svg xmlns="http://www.w3.org/2000/svg" viewBox="0 0 512 512" xml:space="preserve">d=&quot;
M1.000000,197.000000 
	C1.000000,131.333328 1.000000,66.166664 1.000000,1.000000 
	C171.666672,1.000000 342.333344,1.000000 513.000000,1.000000 
	C513.000000,171.666672 513.000000,342.333344 513.000000,513.000000 
	C342.333344,513.000000 171.666672,513.000000 1.000000,513.000000 
	C1.000000,407.833344 1.000000,302.666656 1.000000,197.000000 
M383.262146,358.579102 
	C384.151947,359.080841 385.041748,359.582581 385.997345,360.855255 
	C389.298584,365.946045 392.599854,371.036835 396.042877,376.732513 
	C396.675507,377.510803 397.308136,378.289093 397.982758,379.836731 
	C401.011536,385.203094 403.854126,390.689941 407.196045,395.853638 
	C408.064270,397.195160 410.492767,397.526886 412.204651,398.322418 
	C413.041046,396.458099 414.187836,394.665710 414.640594,392.712463 
	C415.308075,389.833008 415.481201,386.838989 415.928497,383.113617 
	C416.255005,381.866638 416.557648,380.612854 416.911865,379.373810 
	C418.964417,372.194702 421.029144,365.019104 423.777832,357.644562 
	C424.870514,352.113983 425.963196,346.583435 427.598114,340.623322 
	C428.997772,335.069031 430.397461,329.514771 431.986542,323.248657 
	C432.897095,320.600281 434.001587,318.000458 434.679535,315.293793 
	C436.302704,308.813324 437.691345,302.274567 439.236420,295.774017 
	C441.752625,285.187897 444.318115,274.613495 446.941498,263.227905 
	C446.980408,262.154602 447.019287,261.081268 447.654846,259.643494 
	C448.784790,257.201904 450.135864,254.835220 450.993744,252.301529 
	C452.337921,248.331665 453.608093,244.301956 454.445892,240.202805 
	C456.092804,232.145294 457.420959,224.022629 458.943970,215.189407 
	C458.983826,214.448105 459.023682,213.706818 459.559784,212.756439 
	C459.988159,212.434128 460.416534,212.111832 461.547089,211.532928 
	C463.017029,207.250290 464.630829,203.010345 465.917725,198.673416 
	C467.294556,194.033417 468.620117,189.347366 469.459900,184.591690 
	C469.890137,182.155380 469.211182,179.523209 469.061859,176.224823 
	C469.713135,173.816513 470.364410,171.408188 471.626007,168.652420 
	C475.976624,163.510529 475.380066,157.091553 476.780334,150.667770 
	C479.838654,148.367310 481.623383,139.323776 479.879944,135.173065 
	C480.937897,131.456436 481.995880,127.739807 483.693390,123.721199 
	C485.111298,119.993774 486.907806,116.361313 487.871429,112.519928 
	C490.152710,103.426216 492.038452,94.233269 494.644836,84.562645 
	C494.703125,83.038673 494.761414,81.514702 494.964264,79.509781 
	C494.994598,79.345169 495.024963,79.180550 495.718994,78.717560 
	C496.790253,77.196854 498.362885,75.813225 498.824280,74.125763 
	C499.678925,71.000031 500.618591,67.574142 500.107788,64.509071 
	C499.751404,62.370716 497.140625,59.115162 495.356140,58.992729 
	C490.365448,58.650326 485.258270,59.524750 480.249634,60.271378 
	C479.037720,60.452030 478.028656,61.993759 476.065369,62.980164 
	C474.052826,63.025867 472.040283,63.071571 469.222900,62.968113 
	C468.556915,62.946857 467.890625,62.900074 467.225006,62.908218 
	C458.709869,63.012497 450.193359,63.072334 441.681885,63.310295 
	C440.763489,63.335976 439.874298,64.406418 438.293335,65.294281 
	C436.865143,65.515984 435.436920,65.737694 433.686096,65.284439 
	C429.800690,64.614571 425.976715,61.344063 421.055481,64.986824 
	C418.235992,65.005020 415.398773,65.235001 412.600433,65.000572 
	C405.066223,64.369354 402.596832,67.558334 399.297272,75.211418 
	C397.861664,77.617279 396.432007,80.026688 394.989258,82.428253 
	C391.709167,87.888191 388.480469,93.380150 385.120422,98.790466 
	C382.461334,103.072136 379.698456,107.292747 376.872437,111.466522 
	C373.099457,117.038864 369.540375,122.806969 365.240173,127.947937 
	C363.351471,130.205917 361.728546,132.027527 361.309937,135.195358 
	C360.721588,135.443436 359.871033,135.522797 359.585876,135.965988 
	C357.009125,139.970490 354.451172,143.991760 352.046906,148.101257 
	C349.582825,152.313019 347.297638,156.629440 344.304291,161.157333 
	C342.835327,163.404205 341.366333,165.651062 339.296906,168.159683 
	C338.844025,169.088058 338.391174,170.016434 337.332611,171.244507 
	C335.203461,173.815857 331.760834,175.920334 333.831268,180.675980 
	C332.947571,182.116501 332.063843,183.557022 331.039520,185.648102 
	C330.997467,186.089813 330.955414,186.531525 330.293427,187.280777 
	C328.490540,189.824448 326.687683,192.368118 324.156158,194.954514 
	C322.501526,196.184128 320.434814,197.114166 319.277924,198.705627 
	C316.858368,202.034088 315.048615,205.798508 312.750885,209.224594 
	C309.406372,214.211472 305.658325,218.934235 302.434296,223.993881 
	C297.903381,231.104462 303.491577,243.815765 312.054443,246.480499 
	C312.054443,246.480499 312.173584,246.881409 312.064514,247.701355 
	C311.692841,253.296646 315.675323,256.363739 319.238403,260.367188 
	C319.808868,260.912079 320.379333,261.456970 321.020386,262.775665 
	C321.992798,264.213776 322.965210,265.651886 324.177338,267.762299 
	C324.775299,268.894501 325.259003,270.107117 325.990173,271.145508 
	C329.959930,276.783051 333.990784,282.377533 338.136841,288.717255 
	C340.448792,292.469910 342.760742,296.222595 345.138855,300.697449 
	C351.396820,310.159698 357.654785,319.621918 364.110046,329.749817 
	C365.737122,332.209717 367.270416,334.738220 369.010315,337.115540 
	C372.930603,342.471985 376.953217,347.753571 380.994720,353.815247 
	C381.673370,355.195892 382.352020,356.576569 382.996979,357.995789 
	C382.996979,357.995789 383.041382,357.971649 383.262146,358.579102 
M140.763580,302.923553 
	C141.798386,301.273071 142.833191,299.622559 144.073288,297.283630 
	C147.335709,293.425842 150.981216,289.820587 153.742310,285.632263 
	C156.052292,282.128265 157.328171,277.942535 159.605179,273.642578 
	C162.654526,269.437500 165.863434,265.336609 168.699631,260.992371 
	C170.744629,257.860016 172.293396,254.403671 174.644165,250.730011 
	C178.356369,245.797073 182.275360,241.004166 185.732605,235.898575 
	C191.000229,228.119446 190.856201,228.034027 185.059143,220.584702 
	C184.253906,219.549942 183.578812,218.413986 182.842331,217.325668 
	C178.255707,210.547897 173.668762,203.770309 168.950516,196.264664 
	C167.302490,194.164261 165.654465,192.063858 163.877258,189.236954 
	C161.586334,185.637146 159.286606,182.042923 157.006958,178.435974 
	C154.751038,174.866577 152.622437,171.208984 150.194809,167.761337 
	C149.595779,166.910629 148.053055,166.724426 146.390274,165.789276 
	C142.636215,159.504456 138.882156,153.219635 135.016739,146.254883 
	C134.344589,145.502579 133.672440,144.750259 133.000000,144.000000 
	C133.000000,144.000000 133.002060,143.999710 132.976486,143.217911 
	C132.267517,139.914398 132.032867,136.318283 127.968803,135.025574 
	C127.968803,135.025574 127.906029,135.035095 127.802261,134.397736 
	C127.202713,133.597336 126.603165,132.796921 125.895081,131.303589 
	C122.128983,125.300903 118.374702,119.290764 114.593727,113.297462 
	C110.131241,106.223869 105.726326,99.111267 101.100609,92.145638 
	C100.198662,90.787445 98.399971,90.024765 96.709152,88.253654 
	C96.014519,87.876328 95.319595,87.170517 94.625298,87.171135 
	C84.847984,87.179787 75.070099,87.249161 65.294853,87.435532 
	C64.540993,87.449905 63.805962,88.451820 62.997810,88.982124 
	C62.997810,88.982124 62.993042,89.047539 62.071404,89.021431 
	C57.718548,89.682045 53.365688,90.342659 48.110233,91.022964 
	C45.122597,91.107918 42.134960,91.192863 38.417068,91.397057 
	C37.607525,92.626183 36.165276,93.816139 36.086369,95.090508 
	C35.302437,107.750565 34.743813,120.424583 34.041725,133.779190 
	C33.996151,136.498138 33.950573,139.217087 33.256817,142.351379 
	C31.927303,149.453384 30.230509,156.512177 29.388391,163.671509 
	C28.753090,169.072586 29.211597,174.602310 29.100157,180.965042 
	C29.057299,183.963715 29.014441,186.962372 28.394781,190.452728 
	C28.019844,192.168045 27.409693,193.869858 27.310282,195.600998 
	C26.855898,203.513580 26.544754,211.434418 25.798067,219.801208 
	C25.698452,220.180374 25.598837,220.559555 25.366581,221.707596 
	C25.357500,222.486679 25.348417,223.265778 25.225655,224.819519 
	C25.266138,225.860046 25.306622,226.900589 25.258846,228.620056 
	C25.266701,229.075989 25.274555,229.531906 24.874836,230.735535 
	C24.679127,236.511276 24.483416,242.287033 24.220867,248.729477 
	C24.190174,249.175476 24.159481,249.621475 23.517532,250.505997 
	C23.129215,251.219681 22.460251,251.908783 22.395239,252.650787 
	C21.593330,261.803314 20.676481,270.953217 20.211306,280.125214 
	C19.876064,286.735260 20.172705,293.377319 20.102854,300.849762 
	C20.084511,302.262451 20.066168,303.675140 19.565680,305.661621 
	C18.962563,307.056274 18.359446,308.450958 17.507114,310.001862 
	C17.604467,310.457855 17.701820,310.913818 18.014391,312.296722 
	C17.659613,320.849823 17.304834,329.402924 16.348146,338.417480 
	C16.035486,346.126251 15.530148,353.837219 15.617990,361.541412 
	C15.631159,362.696442 18.422590,363.819794 20.388597,365.518860 
	C25.214899,366.401123 30.041201,367.283417 35.313480,368.709869 
	C47.853661,372.176849 60.393841,375.643829 73.293617,379.569275 
	C73.846786,379.739746 74.399948,379.910187 75.436546,380.656982 
	C78.113716,381.241455 81.008560,381.367493 83.419601,382.512421 
	C87.555702,384.476440 89.190308,382.753906 90.731194,378.794006 
	C96.469215,373.609589 99.489395,366.624969 103.635429,359.595978 
	C105.471199,357.116486 107.392159,354.694885 109.124451,352.145081 
	C112.407845,347.312225 115.739883,342.500458 118.755959,337.501526 
	C121.394791,333.127838 123.627930,328.509369 126.652878,323.715240 
	C128.173660,321.749207 129.765503,319.833435 131.199081,317.805725 
	C133.528885,314.510345 135.755081,311.141724 138.423523,307.703217 
	C138.678909,307.548706 138.817749,307.322601 138.943375,306.358002 
	C138.992615,305.910828 139.041870,305.463623 139.530670,304.666382 
	C139.716385,304.139832 139.902100,303.613281 140.763580,302.923553 
M228.037415,133.780716 
	C228.330399,136.938248 229.275208,139.582413 233.065094,140.780533 
	C233.689636,142.203003 234.314178,143.625473 234.988266,145.820984 
	C235.029846,149.148087 236.362686,151.486023 239.900284,152.940323 
	C239.990524,156.134399 241.540878,158.850952 244.692932,158.485672 
	C246.595520,158.265167 248.210831,155.566025 250.393646,153.464310 
	C252.134399,150.626755 253.896545,147.802078 255.611420,144.948959 
	C259.019775,139.278259 262.555145,133.674698 265.699921,127.860504 
	C266.617310,126.164406 266.390228,123.849297 267.073334,121.274048 
	C268.064484,119.867859 269.055603,118.461662 270.683655,116.770950 
	C271.669159,115.922501 272.942566,115.251961 273.594330,114.197289 
	C278.529877,106.210838 283.528931,98.252853 288.112091,90.064293 
	C290.207825,86.319870 291.409546,82.075043 293.118530,78.094879 
	C293.118530,78.094879 293.191162,78.014160 293.828461,77.869194 
	C297.422089,75.050385 294.835358,73.794205 292.360016,73.352760 
	C289.821472,72.900047 287.125977,73.327553 283.698975,73.519661 
	C281.054077,74.006142 278.420227,74.566528 275.761871,74.962692 
	C271.160217,75.648445 266.543396,76.232407 261.117493,76.959541 
	C259.748474,76.957207 258.379486,76.954880 256.572784,76.333313 
	C256.182953,76.039421 255.774307,75.467438 255.406067,75.492371 
	C246.611069,76.087654 237.818832,76.728035 229.034210,77.457916 
	C228.648209,77.489998 228.339081,78.447372 227.173065,79.043182 
	C225.806473,79.066078 224.439865,79.088974 222.141846,78.934326 
	C216.873215,78.930649 211.604568,78.925537 206.335938,78.923866 
	C203.563324,78.922989 200.469604,77.425056 198.755432,81.347107 
	C197.178391,84.955406 198.880905,87.427780 201.321899,90.549271 
	C202.242310,91.608505 203.326736,92.565979 204.057098,93.743134 
	C209.695160,102.830360 215.264694,111.960114 220.964615,121.717819 
	C221.277634,122.482674 221.590652,123.247528 222.028259,124.507782 
	C222.073853,124.671860 222.119431,124.835930 222.347061,125.654091 
	C224.228119,128.106125 226.109177,130.558167 228.000000,133.000000 
	C228.000000,133.000000 227.988831,133.007736 228.037415,133.780716 
M193.376450,374.333405 
	C192.889282,375.882263 192.402115,377.431091 191.368469,379.361511 
	C189.235336,383.205658 187.102188,387.049805 184.316116,391.149323 
	C181.702911,395.198517 179.210831,399.332947 176.439270,403.270660 
	C174.102158,406.591156 174.847107,409.250854 178.383316,410.270691 
	C185.136627,412.218323 192.074890,413.524567 199.503571,415.617767 
	C205.011276,417.068939 210.518967,418.520111 216.387070,420.577026 
	C221.953369,421.993317 227.519669,423.409607 233.712509,424.913910 
	C234.133408,424.941528 234.554321,424.969177 235.433243,425.542542 
	C240.311554,426.965393 245.189850,428.388275 250.708008,429.895142 
	C251.137726,429.915924 251.567429,429.936707 252.446609,430.514282 
	C256.910492,432.011810 261.328857,433.667328 265.849030,434.969452 
	C272.446289,436.869934 279.084595,438.652557 285.765533,440.230835 
	C291.794128,441.655060 297.903473,442.737274 304.013947,444.010254 
	C304.013947,444.010254 304.065063,443.991882 304.490662,444.494446 
	C306.342285,445.284790 308.193939,446.075104 310.849243,446.934296 
	C312.190582,447.011902 313.531952,447.089508 315.289459,447.728699 
	C319.904327,449.497375 324.489471,451.353546 329.165924,452.940765 
	C329.871674,453.180359 331.003113,452.165802 332.572815,451.906403 
	C333.009766,451.950653 333.446716,451.994873 334.259949,452.644104 
	C344.631561,455.976807 355.013184,459.278992 365.364349,462.673950 
	C366.978210,463.203278 368.453461,464.155212 370.760559,465.031677 
	C375.184601,465.943329 379.608673,466.855011 384.745850,467.933105 
	C393.478973,470.599670 394.826569,469.745667 396.577637,460.536560 
	C398.031494,454.021454 399.485321,447.506317 401.168335,440.305695 
	C401.698975,438.736847 402.095947,437.106354 402.785248,435.610657 
	C404.885193,431.054108 403.730194,428.681915 398.490814,428.563690 
	C383.455292,428.224457 368.422272,427.566650 353.386688,427.517792 
	C344.643311,427.489380 335.896881,428.390320 326.918213,428.213287 
	C323.701050,424.696045 319.917328,421.542572 317.378967,417.589447 
	C311.169403,407.918945 305.535309,397.878967 299.493652,387.346100 
	C294.455322,379.324585 289.392151,371.318573 284.385498,363.277344 
	C279.145142,354.860718 273.959106,346.410309 268.751526,337.303619 
	C268.172913,336.498444 267.594330,335.693268 266.938293,334.246460 
	C266.874359,333.820068 266.810425,333.393646 266.652100,332.297760 
	C263.446503,327.848633 259.932831,323.585114 257.112640,318.903839 
	C253.521652,312.943115 250.583572,306.592529 247.155777,300.527679 
	C246.297485,299.009125 244.769608,297.769470 243.327988,296.700195 
	C240.031677,294.255249 236.033875,295.958832 235.102127,299.943848 
	C234.622192,301.996460 234.104874,304.151337 233.058105,305.940308 
	C229.390549,312.208252 225.383057,318.277374 221.719345,324.547455 
	C220.179993,327.181885 219.176926,330.129700 217.294540,333.253052 
	C216.798569,334.805084 216.302597,336.357117 215.258331,338.280518 
	C213.842819,340.468903 212.427292,342.657288 210.456985,345.278564 
	C207.323349,350.888824 204.189713,356.499054 200.488068,362.469543 
	C198.321472,366.311066 196.154877,370.152557 194.001495,374.001221 
	C194.001495,374.001221 193.993332,373.987885 193.376450,374.333405 
z&quot;/&gt;<path fill="#0C18B7" d="M312.174 246.881s-.12-.4-.083-.91a69 69 0 0 0-2.61-7.093c-.822-1.898-1.765-3.744-2.52-5.908.439-.857.741-1.42 1.236-1.697 2.493 1.797 4.825 3.263 7.088 4.83 6.488 4.493 8.906 4.388 14.815-.806 2.915-2.56 5.767-3.029 7.672.891 1.63 3.357 4.2 3.912 7.4 3.577 2.31-.242 4.62-.712 6.929-.707 21.925.044 43.851.3 65.774.114 2.923-.025 6.477-1.496 8.587-3.506 3.083-2.938 4.666-2.024 6.748.664 6.008 7.755 6.605 7.836 14.88 3.124.134 2.226.263 4.01.38 6.153-.058 1.076-.103 1.794-.449 2.688-1.53 2.694-2.76 5.213-4.32 7.61-1.498-.747-2.749-1.258-3.82-2.02-3.453-2.457-6.441-3.708-8.44 1.717-.24.649-2.873.647-4.368.542-1.84-.129-3.691-1.12-5.468-.96-3.738.337-7.425 1.69-11.142 1.73-17.768.192-35.543.27-53.307-.06-3.937-.073-7.8-2.182-11.776-2.93-1.977-.372-4.26-.172-6.186.448-4.206 1.355-8.271 3.144-12.77 4.768-1.133.068-1.892.126-2.914-.01a147 147 0 0 1-4.741-4.278c-2.337-2.836-4.466-5.403-6.595-7.97"/><path fill="#2D13B9" d="M324.885 194.912c1.803-2.544 3.606-5.088 5.96-7.723.93.198 1.682.635 1.634.757-2.104 5.344 1.629 6.408 5.385 7.036 2.573.429 5.31.529 7.887.162 9.338-1.327 18.554-5.18 28.06-.385 1.607.811 3.945.076 5.926.261 18.12 1.695 36.21-2.838 54.331-.23.162.023.333.005.498-.013 8.524-.912 17.049-1.826 25.558-2.31-.74 6.408-1.467 12.386-2.557 18.402-1.094.076-1.825.113-2.88.04-6.616-1.372-12.866-3.347-19.213-3.737-10.028-.616-20.122-.17-30.187-.171-14.457-.001-28.952-.653-43.36.183-14.35.833-28.613 3.16-42.984 4.51-.421-1.123-.772-1.925-1.056-3.086a96 96 0 0 1 2.505-5.135c1.49-2.858 2.994-5.708 4.493-8.561"/><path fill="#086C73" d="M333.884 452.04c-.437-.045-.874-.09-1.798-.514-4.392-2.03-8.296-3.68-12.42-5.611-3.406-1.807-6.593-3.332-9.33-4.868 2.765.197 5.154.107 7.378.667 7.017 1.768 13.352 1.253 19.223-3.628 3.08-2.56 6.735-2.846 10.671-.586 4.717 2.709 11.108 1.237 15.339-3.504-5.83 0-10.93.197-16.003-.088-2.335-.13-4.618-1.205-6.457-1.864 16.024-.02 31.581-.1 47.137-.002 6.593.04 8.529 2.345 8.344 8.846-.079 2.789.176 5.587.25 8.668-.071.672-.114 1.057-.452 1.625-1.618 2.788-3.246 5.29-4.189 8.027-1.294 3.756-3.45 5.932-7.575 5.824-.027-.017-.075-.057-.305-.328-2.693-.746-5.157-1.22-7.874-1.73-.421-.06-.59-.084-.929-.41-.764-.86-1.263-1.682-1.967-1.937-6.81-2.465-13.513-5.448-20.53-7.044-5.978-1.36-12.328-1.092-18.513-1.544"/><path fill="#3312BB" d="M460.139 192.037q-12.786 1.371-25.573 2.74a2 2 0 0 1-.498.012c-18.12-2.607-36.212 1.926-54.331.231-1.981-.185-4.32.55-5.927-.26-9.505-4.795-18.721-.943-28.06.384-2.576.367-5.313.267-7.886-.162-3.756-.628-7.49-1.692-5.385-7.036.048-.122-.704-.559-1.324-.91-.2-.504-.158-.946.368-1.729 3.461-.584 6.733-1.735 9.36-.888 6.04 1.95 11.52.477 17.07-1.284 4.552-1.445 8.693-.974 13.047 1.032 2.402 1.106 5.418 1.32 8.131 1.222 6.636-.241 13.253-1.261 19.883-1.32a2317 2317 0 0 1 63.965.316c-.944 2.823-1.892 5.238-2.84 7.652"/><path fill="#3C11BB" d="M462.973 183.977c-21.32.008-42.64-.097-63.959.092-6.63.059-13.247 1.079-19.883 1.32-2.713.098-5.73-.116-8.131-1.222-4.354-2.006-8.495-2.477-13.048-1.032-5.549 1.761-11.029 3.233-17.07 1.284-2.626-.847-5.898.304-9.289.563.47-1.425 1.355-2.865 2.688-4.76 1.93-2.03 3.409-3.608 5.193-5.028 3.434.966 6.547 2.365 9.695 2.45 5.424.146 10.866-.7 16.308-.821 15.925-.356 31.854-.647 47.783-.797 13.63-.129 27.262.037 40.892-.073 3.633-.03 7.26-.592 10.875-.518-.695 3.108-1.374 5.825-2.054 8.542"/><path fill="#5E0FB9" d="M270.047 117.055c-.991 1.407-1.983 2.813-3.48 4.612-1.49 1.69-2.537 2.945-3.446 4.294-3.668 5.446-7.292 10.922-10.973 15.96-.126-1.252.07-2.273-.346-2.864-2.784-3.964-5.62-7.9-8.693-11.638-.292-.355-2.773.352-3.449 1.197-1.634 2.045-2.802 4.463-4.488 6.646-2.616-2.46-4.903-4.836-7.183-7.231.006-.02-.033-.023-.092-.33-.685-1.086-1.312-1.866-1.929-2.656.01-.011-.028.002-.014-.39-.02-1.433-.054-2.475.262-3.398 4.18.048 8.084.392 11.81-.269 1.87-.331 3.309-2.667 5.133-3.786 3.706-2.271 6.922-.935 7.459 2.793.213 1.487.888 2.907 1.353 4.357 1.98-.646 5.11-.738 5.734-2.036 2.41-5.009 7.246-6.59 11.337-8.94.354 1.461.68 2.57 1.005 3.68"/><path fill="#1A5B63" d="M396.248 449.27c-.104-2.795-.359-5.593-.28-8.382.185-6.501-1.75-8.805-8.344-8.846-15.556-.097-31.113-.018-47.604-.009-2.767-.001-4.664.298-6.42-.072-3.251-.685-6.42-1.762-9.227-2.73 1.19-.155 1.985-.256 2.779-.358 8.745-.483 17.491-1.384 26.235-1.355 15.035.049 30.068.706 45.104 1.046 5.24.118 6.394 2.49 4.294 7.047-.69 1.495-1.086 3.126-2.057 5.17-1.787 3.145-3.134 5.817-4.48 8.489"/><path fill="#0E4881" d="M397.94 379.067c-.632-.778-1.264-1.556-1.958-3.076-.075-2.783-.09-4.824.177-6.684 2.338 3.567 4.38 6.82 8.955 3.172.622-.496 2.062-.49 2.874-.14 5.209 2.25 7.35.355 7.327-5.017-.004-.924.449-2 1.023-2.752 4.036-5.285 3.895-11.398 3.66-17.805.016-.428.022-.599.275-.95.729-1.055 1.21-1.928 1.703-2.814.01-.011.024-.04.353-.04.98-.01 1.63-.021 2.3.355-.769 5.07-4.327 9.448-1.54 14.526-2.06 7.177-4.125 14.353-6.177 21.532-.354 1.239-.657 2.493-1.338 4.256-.997 1.016-1.836 1.39-2.25 2.037-3.927 6.127-4.636 5.966-8.83-.388-1.614-2.447-4.336-4.163-6.553-6.212"/><path fill="#0D255E" d="M217.93 332.935c1.247-2.805 2.25-5.753 3.79-8.388 3.663-6.27 7.67-12.339 11.338-18.607 1.047-1.789 1.564-3.944 2.044-5.996.932-3.985 4.93-5.689 8.226-3.244 1.442 1.07 2.97 2.31 3.828 3.828 3.428 6.065 6.366 12.415 9.957 18.376 2.82 4.681 6.334 8.945 9.275 13.821-1.307.71-2.352.994-3.668 1.073-5.886-9.389-11.609-18.508-17.067-27.783-2.768-4.703-4.861-5.226-7.8-.665-5.192 8.054-9.943 16.392-15.104 24.823-.753 1.09-1.28 1.967-2.146 2.86-1.01.079-1.68.143-2.432.13z"/><path fill="#4B137E" d="M362.02 135.032c-.291-3.004 1.331-4.826 3.22-7.084 4.3-5.141 7.86-10.91 11.632-16.481a384 384 0 0 0 8.248-12.677c3.36-5.41 6.59-10.902 9.87-16.362 1.442-2.401 2.872-4.81 4.997-7.343 1.403-.136 2.117-.145 2.844.218a43 43 0 0 1-.043 2.878c-.058.643-.067 1.012-.375 1.566-4.116 6.38-7.933 12.574-12.06 18.92-4.693 7.037-9.083 13.916-13.433 20.82-.238.377-.14.967-.41 1.7-5.114 5.64-11.032 10.401-12.01 18.507-1.1.025-1.834.031-2.565-.354.03-1.697.057-3.003.084-4.308M97.015 88.987c1.385 1.038 3.184 1.8 4.086 3.159 4.625 6.965 9.03 14.078 13.493 21.151 3.78 5.994 7.535 12.004 11.41 18.663.706 1.463 1.304 2.27 1.902 3.075 0 0 .063-.01-.032.478-.309 1.393-.524 2.298-.952 2.974a1241 1241 0 0 1-11.867-15.923c-1.42-2.422-2.7-4.538-4.048-6.96-.641-1.14-1.215-1.975-1.9-3.145-1.732-3.077-3.356-5.82-5.066-8.907-1.705-2.454-3.323-4.56-5.089-6.983-4.68-5.926-10.988-4.542-17.405-4.607-6.524-.06-12.58-.09-18.607-.467.037-1.048.045-1.748.053-2.447 0 0 .005-.066.498-.01 11.504.02 22.514-.015 33.524-.05"/><path fill="#0B2571" d="M446.863 264.034c-2.545 10.58-5.11 21.154-7.627 31.74-1.545 6.5-2.933 13.04-4.556 19.52-.678 2.706-1.783 5.306-3.04 8.5-1.747 2.106-3.147 3.668-4.578 4.85-.074-1.138-.118-1.896-.102-3.055 1.461-6.44 2.863-12.48 4.507-18.757.995-2.1 1.748-3.964 2.59-6.199 1.774-6.408 3.46-12.446 5.401-18.755 1.68-5.146 3.105-10.02 4.548-15.261.058-1.094.1-1.823.48-2.548 1.019-.008 1.698-.022 2.377-.035"/><path fill="#0E335D" d="M262.992 334.002c1.044-.283 2.089-.566 3.444-.942.374.334.438.76.595 1.811.634 1.451 1.176 2.277 1.718 3.104 5.21 8.435 10.396 16.886 15.636 25.302 5.007 8.042 10.07 16.048 14.874 24.398-.666.347-1.096.367-1.817.274a59 59 0 0 1-4.56-4.215c-.945-.856-1.746-1.44-2.658-2.353-2.388-3.486-4.665-6.645-7.006-10.145-4.765-8.339-9.465-16.337-14.197-24.698-2.029-3.75-4.025-7.137-6.027-10.86a151 151 0 0 1-.002-1.676"/><path fill="#16176C" d="m169.082 196.993 13.76 20.333c.737 1.088 1.412 2.224 2.217 3.259 5.797 7.449 5.941 7.534.674 15.314-3.458 5.105-7.377 9.898-11.487 14.706-.594-1.183-.789-2.242-.666-3.438 1.71-2.453 3.103-4.768 4.523-7.395.039-.733.049-1.152.338-1.758 1.352-1.648 2.228-3.327 3.54-4.529 3.522-3.224 3.234-6.763.88-10.249-3.76-5.567-7.797-10.945-11.846-16.712-2.58-4.047-5.03-7.786-7.286-11.542.193-.016.577-.07.849.095 1.682.748 3.093 1.332 4.504 1.916"/><path fill="#0E4881" d="M74.953 380.08c-.553-.17-1.106-.34-2.026-1.028-4.124-2.047-7.844-3.682-11.65-5.081-6.45-2.372-12.953-4.596-18.95-6.908 5.397.32 11.21-.83 14.975 1.43 3.803 2.283 7.133 3.459 11.315 3.645 1.693.076 3.538.837 4.975 1.794 5.158 3.434 12.295.515 13.607-5.42.39-1.765 1.846-3.822 3.401-4.682 2.54-1.403 5.562-1.933 8.35-2.469-3.992 6.1-7.954 11.838-12.373 17.597-4.18.388-7.902.755-11.624 1.123"/><path fill="#16176C" d="M324.52 194.933c-1.134 2.832-2.639 5.682-4.128 8.54-.827 1.585-1.627 3.184-2.729 5.374-3.377 4.634-6.87 8.432-9.423 12.782-2.01 3.423-5.457 7.242-1.413 11.636.89 1.869 1.832 3.715 2.654 5.613a68 68 0 0 1 2.55 6.892c-8.54-1.954-14.128-14.666-9.597-21.776 3.224-5.06 6.972-9.783 10.317-14.77 2.298-3.425 4.107-7.19 6.527-10.518 1.157-1.592 3.224-2.522 5.242-3.773"/><path fill="#6D13A9" d="M223.073 79.112c1.367-.023 2.733-.046 4.88.079 6.166.244 11.553.341 17.393.501 3.18.125 5.908.186 8.4.517-6.073 1.766-11.842 4.027-17.769 4.572-8.09.745-16.303.15-24.462.208-1.701.013-3.4.373-4.916.552.88 3.327 1.583 5.983 2.003 8.461-2.424-2.418-4.566-4.658-6.695-7.311-.03-3.337 1.53-4.558 4.33-4.61 3.801-.068 7.636.041 11.39-.448 1.892-.247 3.635-1.644 5.446-2.521"/><path fill="#1A5B63" d="M309.887 441.059c3.186 1.524 6.373 3.05 9.416 4.87-1.573.61-3.001.924-4.43 1.238-1.341-.077-2.682-.155-4.567-.585-2.442-1.098-4.341-1.844-6.24-2.59 0 0-.052.018-.282-.281-1.335-.974-2.358-1.941-3.558-2.275-10.649-2.959-21.29-5.962-32.016-8.618-5.315-1.315-10.803-1.93-16.213-2.86-.43-.021-.86-.042-1.615-.451-.36-1.08-.392-1.772-.392-2.502.032-.038.095-.115.547-.1 4.081.062 7.711.11 11.584.424 4.94 1.715 9.596 3.33 14.35 4.568 5.705 1.486 11.5 2.629 17.245 3.962 4.409 1.023 8.803 2.111 13.363 3.418.751.75 1.343 1.25 2.153 1.762.218.01.655.02.655.02"/><path fill="#411799" d="M33.905 141.936c.046-2.719.091-5.438.507-8.55 1.036-.439 1.703-.483 2.433-.102.148 1.848.234 3.27.293 5.158-.074 5.178-.121 9.89-.174 15.06-.006 4.802-.007 9.144-.018 13.914-.693 7.467-1.376 14.506-2.336 21.66-1.045.353-1.811.59-2.604.381a634 634 0 0 1-.113-9.907z"/><path fill="#1A5B63" d="M334.072 452.342c5.997.15 12.347-.119 18.326 1.241 7.016 1.596 13.72 4.58 20.53 7.044.703.255 1.202 1.076 1.593 1.974-1.644.996-3.086 1.654-4.528 2.31-1.54-.756-3.015-1.708-4.629-2.237-10.35-3.395-20.732-6.697-31.292-10.332"/><path fill="#4B137E" d="M201.894 87.105c2.142 2.24 4.284 4.479 6.866 7.186 1.98 2.91 3.52 5.353 5.193 8.064.71.787 1.29 1.307 1.946 2.165 1.714 3.055 3.35 5.77 5.044 8.803.657 1.16 1.257 2 1.932 3.1.329.729.582 1.2.92 1.986.759 1.106 1.435 1.896 2.101 2.695l-.031.034c.035 1.042.07 2.084-.288 3.513-1.398.374-2.405.362-3.412.349-.046-.164-.091-.328-.097-.978-.378-1.306-.795-2.126-1.213-2.945-5.59-9.117-11.16-18.247-16.798-27.334-.73-1.177-1.815-2.134-2.86-3.78.15-1.343.424-2.1.697-2.858"/><path fill="#16176C" d="M448.322 248.118c.045-.717.09-1.435.446-2.687 1.004-4.445 1.697-8.355 2.535-12.575.686-1.81 1.226-3.311 1.814-5.101.068-.677.089-1.064.38-1.706.8-1.935 1.107-3.731 1.917-5.263.922-1.743 2.292-3.25 3.467-4.86-1.46 8.097-2.788 16.22-4.435 24.277-.838 4.099-2.108 8.129-3.452 12.099-.858 2.533-2.21 4.9-3.806 7.203.066-3.888.6-7.637 1.134-11.387"/><path fill="#0E3C4D" d="M297.732 388.061c.43-.02.861-.039 1.615-.066 6.188 9.884 11.822 19.924 18.032 29.594 2.538 3.954 6.322 7.107 9.656 10.954-.677.432-1.471.533-3.042.628-2.363-1.419-4.193-2.638-5.483-4.281-2.696-3.435-3.08-8.765-8.408-10.038-.036.015-.036.091-.112-.21-.695-1.114-1.315-1.926-1.975-3.066-.67-1.44-1.301-2.55-1.972-4.005-.413-1.438-.787-2.532-1.173-3.996-2.388-5.418-4.763-10.466-7.138-15.514"/><path fill="#4B137E" d="M270.365 116.913c-.644-.967-.969-2.076-1.31-3.523-.017-.339.013-.362.304-.519 2.399-3.73 4.507-7.302 6.812-11.154 1.827-3.387 3.458-6.496 5.373-9.79 2.392-3.399 4.499-6.613 6.887-9.983 1.05-1.41 1.82-2.665 2.922-3.925.776.01 1.22.024 1.664.038-1.607 4.018-2.81 8.263-4.905 12.007-4.583 8.189-9.582 16.147-14.518 24.133-.651 1.055-1.925 1.726-3.229 2.716"/><path fill="#6D13A9" d="M402.838 77.906c.002-.744.005-1.487.132-2.926 2.128-5.653 5.852-7.48 11.073-7.035 2.604.222 5.253-.089 8.34-.115 4.18-.595 7.903-1.233 11.626-1.87 1.428-.222 2.856-.444 5.064-.754 7.854.094 14.93.275 21.76.773-1.584.856-2.898 1.791-4.264 1.875-12.827.79-25.658 1.556-38.499 2.061-4.803.19-9.252.284-11.711 5.477-.54 1.139-2.315 1.692-3.521 2.514"/><path fill="#0E3C4D" d="M252.222 430.236c5.185.653 10.673 1.267 15.988 2.582 10.726 2.656 21.367 5.66 32.016 8.618 1.2.334 2.223 1.301 3.54 2.255-5.863-.954-11.972-2.036-18-3.46-6.681-1.578-13.32-3.361-19.917-5.262-4.52-1.302-8.939-2.957-13.627-4.733"/><path fill="#0D255E" d="M126.04 324c-2.412 4.51-4.645 9.128-7.284 13.502-3.016 4.998-6.348 9.81-9.632 14.643-1.732 2.55-3.653 4.971-5.987 7.55-.999-.171-1.5-.44-1.925-1.039 1.283-2.095 2.587-3.801 3.681-5.634 4.367-7.312 8.669-14.663 13.144-22.246.384-.767.62-1.287.966-2.118 1.37-1.79 2.631-3.268 4.285-4.73 1.18.035 1.966.053 2.752.071"/><path fill="#371472" d="M361.665 135.114c.327 1.223.3 2.529.23 4.285-.042.45-.142.548-.367.697-.66.714-1.097 1.279-1.568 2.213-1.726 4.07-3.417 7.771-5.396 11.672-4.067 4.767-7.846 9.336-11.597 13.539.675-2.45 1.321-4.535 1.967-6.62 2.364-4.27 4.649-8.587 7.113-12.799 2.404-4.11 4.962-8.13 7.539-12.135.285-.443 1.136-.523 2.079-.852"/><path fill="#111C8F" d="M173.262 247.305c.195 1.058.39 2.117.693 3.481-1.662 3.618-3.21 7.074-5.255 10.206-2.837 4.345-6.045 8.445-9.682 12.97-2.034.914-3.483 1.507-4.816 1.775 3.047-6.435 5.98-12.544 9.237-18.745 3.4-3.394 6.476-6.696 9.62-9.921z"/><path fill="#371472" d="M164.306 194.912s-.384.054-.935-.04c-1.041-.184-1.532-.272-2.091-.69-2.437-4.035-4.806-7.742-7.218-11.792-2.333-4.081-4.622-7.819-6.912-11.94-.069-1.662-.137-2.94-.206-4.217 1.11.491 2.652.678 3.25 1.528 2.428 3.448 4.557 7.106 6.813 10.675 2.28 3.607 4.58 7.201 6.934 11.578.164 2.15.265 3.525.365 4.898"/><path fill="#3C0F62" d="M36.781 132.858c-.666.045-1.333.09-2.33.185a984 984 0 0 1 1.635-37.952c.08-1.275 1.522-2.465 2.725-3.314.387 3.367.38 6.354.324 9.766-.122 2.726-.194 5.028-.552 7.588-.703 6.12-1.12 11.982-1.577 18.265-.101 2.1-.163 3.782-.225 5.462M476.926 62.91c1.103-.916 2.112-2.458 3.324-2.639 5.008-.746 10.115-1.62 15.106-1.278 1.785.122 4.395 3.378 4.752 5.516.51 3.065-.43 6.491-1.284 9.617-.461 1.687-2.034 3.07-3.654 4.457-.184-1.982-.147-3.977.606-5.65 2.653-5.896.428-9.797-5.888-9.896-4.32-.068-8.641-.087-12.962-.127"/><path fill="#0E3C4D" d="M397.962 379.452c2.196 1.664 4.918 3.38 6.532 5.827 4.194 6.354 4.903 6.515 8.83.388.414-.646 1.253-1.02 2.218-1.647-.06 2.819-.234 5.813-.901 8.692-.453 1.954-1.6 3.746-2.436 5.61-1.712-.795-4.14-1.127-5.009-2.468-3.342-5.164-6.184-10.65-9.234-16.402"/><path fill="#371472" d="M252.188 142.349c3.64-5.466 7.265-10.942 10.933-16.388.909-1.35 1.957-2.603 3.254-4.022.015 1.91.242 4.225-.675 5.922-3.145 5.814-6.68 11.417-10.089 17.088-1.714 2.853-3.477 5.678-5.784 8.793-1.264.298-1.96.317-2.554.01 1.716-3.367 3.33-6.406 4.96-9.772a36 36 0 0 0-.045-1.631"/><path fill="#62159F" d="M494.82 79.99c-.059 1.525-.117 3.049-.759 5.016-3.565 10.57-6.503 20.709-9.571 30.809-.474 1.56-1.54 2.942-2.379 3.983a86 86 0 0 1-.186-4.243c.047-2.474.072-4.512.125-6.944 3.027-9.78 6.027-19.165 9.4-28.56 1.373-.026 2.372-.043 3.37-.06"/><path fill="#411799" d="M462.979 184.385a129 129 0 0 1 2.318-9.175c1.765-4.148 3.245-7.679 4.75-10.837.338 1.79.654 3.209.969 4.627-.652 2.408-1.303 4.817-2.253 7.817-1.921 5.906-3.894 11.144-5.075 16.555-1.322 6.057-1.926 12.271-2.843 18.418-.428.322-.857.644-1.7.82-.68-.69-.948-1.235-1.215-1.78.727-5.977 1.454-11.955 2.194-18.362.963-2.845 1.911-5.26 2.855-8.083"/><path fill="#0D255E" d="M20.188 300.005c-.015-6.628-.312-13.27.023-19.88.465-9.172 1.382-18.322 2.184-27.474.065-.742.734-1.431 1.584-1.99.61 8.861.758 17.567.575 26.429-1.051 2.512-2.058 4.824-2.436 7.234-.815 5.2-1.307 10.451-1.93 15.681"/><path fill="#0B2571" d="M20.145 300.427c.666-5.652 1.158-10.903 1.973-16.103.378-2.41 1.385-4.722 2.464-6.777.4 3.03.443 5.758.474 8.952-.08 6.4-.151 12.333-.499 18.536-.83 4.487-1.384 8.704-2.223 12.95-.872.113-1.457.196-2.078-.198-.094-4.552-.151-8.625-.208-12.7.018-1.412.037-2.825.097-4.66m324.928-.452c-2.312-3.752-4.624-7.505-6.98-11.97-.02-1.177.003-1.641.377-2.082 1.05.062 1.753.1 2.68.308.751.71 1.277 1.25 1.95 2.07 1.022.804 1.895 1.328 2.739 1.845-.029-.005-.017.052.038.4 3.047 5.046 6.038 9.745 9.04 14.815.061 1.109.11 1.847-.202 2.537-1.952-1.288-3.583-2.48-5.119-3.784-1.557-1.322-3.02-2.755-4.523-4.139"/><path fill="#111C8F" d="M25.067 286.034c-.042-2.729-.085-5.457-.155-8.643-.175-9.163-.323-17.869-.627-26.95-.126-.82-.095-1.266.287-2.2 1.013-2.253 2.094-3.98 2.252-5.79.33-3.781.175-7.605.553-11.453 1.005-.07 1.676-.1 2.423.346.13 3.305.515 6.177.17 8.958-.692 5.572-1.783 11.094-2.743 17.108-.1 8.835-.167 17.2-.318 25.864-.67 1.12-1.256 1.94-1.842 2.76"/><path fill="#1A5B63" d="M216.027 419.971c-5.508-1.45-11.016-2.902-17.005-4.902-2.694-2.007-4.906-3.465-6.657-4.95 3.482-.031 6.503-.037 9.736.223 3.09 1.71 5.897 3.324 8.86 4.564 4.905 2.052 9.91 3.864 14.598 5.894-3.36-.198-6.446-.513-9.532-.829"/><path fill="#0E3C4D" d="M191.904 410.146c2.212 1.458 4.424 2.916 6.834 4.662-6.663-1.283-13.601-2.59-20.355-4.537-3.536-1.02-4.28-3.68-1.944-7 2.772-3.938 5.264-8.072 8.21-11.868.341 1.015.349 1.777.234 2.872-.754 2.104-1.387 3.876-2.326 5.776-1.369 2.227-2.432 4.327-3.495 6.426a259 259 0 0 1 4.223 1.784c3.098.743 5.858 1.314 8.62 1.885"/><path fill="#62159F" d="M39.184 101.118c.007-2.987.014-5.974-.008-9.4 2.959-.525 5.947-.61 9.763-.55 5.21.323 9.59.499 13.972.675 6.056.03 12.112.058 18.375.39-1.998.766-4.19 1.539-6.412 1.64-9.076.415-18.16.665-27.245.89-4.137.103-6.093 2.03-6.058 6.218z"/><path fill="#0E335D" d="M41.844 367.09c6.48 2.285 12.984 4.509 19.433 6.88 3.806 1.4 7.526 3.035 11.47 4.852-12.353-3.178-24.893-6.645-37.58-10.491-.146-.38.008-.593.32-.687 1.397-.303 2.48-.513 3.913-.69 1.048.067 1.746.101 2.444.135"/><path fill="#0D255E" d="M345.106 300.336c1.47 1.023 2.933 2.456 4.49 3.778 1.536 1.304 3.167 2.496 5.33 3.807.572.07.995.1 1.057.459 3.029 5.495 5.996 10.633 8.929 16.095-.203 1.613-.372 2.902-.656 4.295l-.343.314c-6.258-9.462-12.516-18.924-18.807-28.748"/><path fill="#411799" d="M146.667 166.011c.346 1.5.414 2.777.18 4.298-3.472-2.29-6.64-4.825-9.804-7.797.594-8.017-3.692-13.078-8.902-18.061-.069-1.724-.134-3.049.087-4.216a228 228 0 0 1 4.774 3.765s-.002 0 .06.314c.73 1.083 1.398 1.852 2.066 2.62 3.754 6.286 7.508 12.57 11.54 19.077"/><path fill="#241362" d="M29.724 230.87c-.671.029-1.342.057-2.555-.025-.99-.36-1.438-.608-1.887-.857-.007-.456-.015-.912.214-1.882.106-1.697-.025-2.879-.157-4.061.01-.78.019-1.558.211-2.813.334-.943.483-1.411.632-1.88.363-7.918.674-15.838 1.128-23.751.1-1.731.71-3.433 1.444-4.99.448.702.535 1.243.614 2.217.173 12.985.355 25.537.494 38.066a.4.4 0 0 0-.138-.023"/><path fill="#0B2571" d="M154.087 276.063a537 537 0 0 1 4.66-1.892c-1.419 3.772-2.695 7.957-5.005 11.461-2.76 4.189-6.406 7.794-10.084 12.002-.832.352-1.25.353-1.67-.02-.018-1.124-.03-1.874.103-2.932 3.388-5.42 6.629-10.53 9.992-15.927a51 51 0 0 1 2.004-2.692"/><path fill="#3C0F62" d="M482.16 120.22c.79-1.463 1.856-2.845 2.33-4.405 3.068-10.1 6.006-20.24 9.29-30.55-1.742 8.968-3.627 18.161-5.909 27.255-.963 3.841-2.76 7.474-4.7 11.084-.685-1.206-.849-2.295-1.012-3.383"/><path fill="#6D13A9" d="M494.892 79.75c-1.07.258-2.069.275-3.46-.141-.408-2.486-.423-4.538-.208-6.844 3.371-4.906 2.725-6.55-2.705-7.286-1.613-.219-3.29.06-4.937.065-4.628.016-9.255.008-13.871-.299.113-.914.215-1.521.317-2.128a568 568 0 0 0 6.468-.172c4.75.005 9.072.024 13.392.092 6.316.099 8.541 4 5.888 9.895-.753 1.674-.79 3.669-.938 5.8.187.449.157.613.054 1.018"/><path fill="#241362" d="M461.196 211.661c.566-6.018 1.17-12.232 2.492-18.29 1.181-5.41 3.154-10.648 5.061-16.177.462 2.33 1.141 4.961.71 7.398-.839 4.755-2.164 9.441-3.541 14.081-1.287 4.337-2.901 8.577-4.722 12.988M33.58 142.144c-.337 12.175-1 24.559-2.021 37.412-1.032.486-1.704.503-2.376.519.029-5.473-.43-11.002.205-16.403.843-7.16 2.54-14.219 4.193-21.528"/><path fill="#62159F" d="M291.02 78.025c-.77 1.254-1.539 2.509-2.852 3.624-2.722-.666-4.89-1.594-7.08-1.648-8.743-.218-17.492-.163-26.21-.525.107-.945.188-1.574.583-2.237.726-.117 1.138-.202 1.55-.286 1.368.002 2.737.004 4.984 0 5.014.035 9.155-.028 13.287.14 5.25.213 10.492.613 15.738.932"/><path fill="#1A5B63" d="M384.028 465.049c4.098.09 6.255-2.085 7.55-5.841.942-2.738 2.57-5.239 4.182-7.576.257 3.247.223 6.224.19 9.2-1.123 8.914-2.471 9.768-11.55 6.678-.355-1.102-.363-1.782-.372-2.461"/><path fill="#0B2571" d="M126.347 323.857c-1.093.124-1.88.106-3.013-.303.259-1.883.683-3.484 1.504-4.846 2.35-3.893 4.861-7.69 7.297-11.554-.01-.03-.068-.05.236-.12 1.032-.746 1.759-1.42 2.53-2.099.042-.004.127-.019.464-.016 1.004.003 1.671.004 2.685.028l1.041.07c-.05.447-.098.894-.342 1.796-.382.624-.558.802-.724.991-2.27 3.338-4.496 6.706-6.826 10.002-1.433 2.027-3.025 3.943-4.852 6.051"/><path fill="#371472" d="M471.32 168.826c-.62-1.244-.935-2.662-1.243-4.867.689-3.839 1.371-6.891 2.118-10.334.088-1.44.112-2.49.18-3.864-.031-.97-.107-1.617.096-2.502 1.709-2.426 3.137-4.614 4.485-6.453a647 647 0 0 0-.781 10.226c-.795 6.06-.198 12.479-4.854 17.794"/><path fill="#3C0F62" d="M201.907 86.69c-.286 1.172-.56 1.93-.908 2.98-2.118-2.242-3.82-4.715-2.244-8.323 1.715-3.922 4.808-2.424 7.58-2.423 5.27.002 10.538.007 16.273.1-1.346.965-3.089 2.362-4.982 2.609-3.753.489-7.588.38-11.39.449-2.799.05-4.359 1.272-4.329 4.609"/><path fill="#0E335D" d="M185.005 393.942c-.007-.762-.015-1.524-.029-2.667 2.126-4.225 4.26-8.07 6.937-12.32 1.056-1.926 1.568-3.447 2.08-4.967 0 0 .008.013.369.005 1.094-.015 1.827-.022 2.565.375-.046 1.729-.095 3.054-.415 4.586-1.72 3.068-3.168 5.928-4.876 8.99a26 26 0 0 0-1.686 3.016c.03-.005-.024-.037-.323.084-1.74 1.046-3.18 1.972-4.622 2.898"/><path fill="#4B137E" d="M469.625 63.043c.3.681.199 1.288-.338 2.205-3.026.345-5.618.38-8.209.414-7.075-.181-14.15-.362-21.666-.607.462-.649 1.351-1.719 2.27-1.745 8.511-.238 17.028-.298 25.543-.402.666-.008 1.332.039 2.4.135"/><path fill="#0D255E" d="M19.807 305.375c.298 3.787.355 7.86.428 12.856-.098 7.193-.212 13.465-.659 19.763-.991.106-1.65.185-2.388.189l-.238-.227c.355-8.553.71-17.106.964-26.313-.12-1.035-.138-1.416-.158-1.797.603-1.395 1.207-2.79 2.05-4.471"/><path fill="#3C0F62" d="M256.792 76.643c-.193.394-.605.479-1.776.559-3.88.806-7.002 1.617-10.123 2.427-5.387-.097-10.774-.194-16.53-.473-.024-.709.285-1.666.671-1.698 8.785-.73 17.577-1.37 26.372-1.966.368-.025.777.547 1.386 1.15"/><path fill="#0E335D" d="m101.137 358.987 1.753.939c-3.4 6.699-6.42 13.684-12.866 18.985a26 26 0 0 1-2.99.026c3.962-5.738 7.924-11.475 12.113-17.795.814-1.107 1.402-1.631 1.99-2.155m99.919 3.123c3.134-5.61 6.267-11.221 9.697-16.67.507 1.615.718 3.07.879 4.857-2.61 5.07-5.167 9.807-8.045 14.559-.744.06-1.17.105-1.65-.153a57 57 0 0 0-.88-2.594"/><path fill="#5E0FB9" d="M482.111 119.798c.211 1.511.375 2.6.74 3.957-.855 3.985-1.913 7.701-3.311 11.881-.762.707-1.184.95-1.728.965-.37-.688-.616-1.146-.857-2.023.012-1.817.019-3.216.027-5.054-.142-5.473.162-10.34 4.922-13.532.053 1.127.106 2.255.207 3.806"/><path fill="#0D255E" d="M338.12 285.9c-.024.464-.048.928-.095 1.74-4.034-5.262-8.065-10.857-12.035-16.494-.731-1.039-1.215-2.251-1.917-4.096-.09-1.467-.075-2.22.21-2.8 4.792 7.334 9.315 14.492 13.837 21.65m42.814 67.166c-3.98-5.312-8.003-10.594-11.924-15.95-1.74-2.378-3.273-4.906-4.999-7.699-.098-.333.13-.542.568-.538 1.815 1.333 3.327 2.549 4.546 4.01 3.334 3.998 6.545 8.1 9.939 12.394.428.683.723 1.133.94 1.883.307 2.115.69 3.93 1.038 5.785z"/><path fill="#3C0F62" d="M421.925 67.787c-2.629.07-5.278.38-7.882.158-5.221-.445-8.945 1.382-11.087 6.663-.852.332-1.566.341-2.637.345 2.278-7.395 4.747-10.584 12.281-9.952 2.799.234 5.636.004 8.919.344.444 1.053.425 1.747.406 2.442"/><path fill="#0E335D" d="M395.878 369.125c.015 2.042.03 4.083.034 6.563-3.312-4.651-6.613-9.742-10.114-15.475-1.052-1.176-1.904-1.709-2.757-2.241 0 0-.044.024-.025-.417.056-1.847.094-3.253.418-4.498a221 221 0 0 1 7.677 11.26c1.644 1.811 3.222 3.288 4.793 4.774z"/><path fill="#3C0F62" d="M96.862 88.62c-10.857.403-21.867.438-33.339.424.283-.592 1.018-1.594 1.772-1.608 9.775-.187 19.553-.256 29.33-.265.695 0 1.39.705 2.237 1.45"/><path fill="#4B137E" d="M227.983 128.05c2.286 2.376 4.573 4.752 7.217 7.481.44.712.524 1.07.675 1.761.71 1.224 1.354 2.113 1.976 3.317 0 .735.02 1.155.036 1.943-.028 1.109-.052 1.85-.435 2.576a563 563 0 0 0-2.513-.08c-.625-1.423-1.25-2.845-1.998-4.965-1.733-2.823-3.343-4.95-4.952-7.075 0 0 .011-.008.018-.417a717 717 0 0 0-.024-4.54"/><path fill="#3C0F62" d="M291.353 78.02c-5.579-.314-10.821-.714-16.071-.927-4.132-.168-8.273-.105-12.88-.19 4.141-.67 8.758-1.255 13.36-1.94 2.658-.396 5.292-.957 8.52-1.289 3.36 1.55 6.134 2.945 8.91 4.34 0 0-.073.08-.124.062a29 29 0 0 0-1.715-.057"/><path fill="#0E3C4D" d="M315.081 447.448c1.22-.595 2.65-.91 4.442-1.238 4.267 1.637 8.171 3.286 12.245 5.229-.765.727-1.896 1.741-2.602 1.502-4.677-1.587-9.262-3.444-14.085-5.493m81.183 13.237c-.28-2.83-.247-5.806-.208-9.235.048-.837.091-1.222.163-1.894 1.375-2.958 2.722-5.63 4.394-8.433-1.128 6.383-2.582 12.898-4.35 19.562"/><path fill="#0D255E" d="M19.929 364.958c-1.506-1.138-4.298-2.262-4.311-3.417-.088-7.704.417-15.415 1.031-23.354.301-.231.46-.08.5.438-.01 6.761-.058 13.006-.077 19.603.916 1.49 1.801 2.626 2.744 3.812.058.05.166.158.16.504z"/><path fill="#3C0F62" d="M477.935 136.83c.421-.244.843-.487 1.503-.786 2.185 3.28.4 12.323-2.96 14.806-.07-3.11.164-6.403.656-10.38.44-1.67.62-2.655.8-3.64"/><path fill="#4B137E" d="M422.383 67.83c-.439-.738-.42-1.432-.397-2.474 3.99-4.012 7.815-.741 11.861.266-3.56.975-7.283 1.613-11.464 2.208"/><path fill="#0D255E" d="M25.079 230.362c.652-.125 1.1.124 1.756.525.164 3.96.32 7.783-.011 11.564-.158 1.81-1.239 3.537-2.219 5.457-.122-5.621.074-11.397.474-17.546"/><path fill="#1A5B63" d="M234.975 424.997c-.42-.028-.842-.055-1.59-.477-.36-1.094-.394-1.794.034-2.507 6.383-.109 12.396-.501 16.666 4.877 0 0-.063.077-.518.105-5.167-.647-9.88-1.323-14.592-1.998"/><path fill="#0E335D" d="M20.159 365.238c-.216-.97-.202-1.66.188-2.673 4.086.66 7.837 1.519 11.482 2.702 1.25.406 2.238 1.624 3.346 2.47l-.23.322c-4.904-.776-9.73-1.658-14.786-2.82"/><path fill="#0D255E" d="M427.092 329.023c1.4-1.561 2.801-3.123 4.453-4.873-1.148 5.365-2.547 10.919-4.318 16.594-.37.12-.57-.068-.55-.496.055-3.367.091-6.306.176-9.575z"/><path fill="#0E3C4D" d="M86.577 378.958c1.217.009 1.978.04 3.12.08-.507 3.716-2.141 5.438-6.277 3.474-2.411-1.145-5.306-1.27-8.225-2.143 3.48-.656 7.203-1.023 11.382-1.411"/><path fill="#0B2571" d="M211.682 349.965c-.21-1.455-.422-2.91-.651-4.742 1.396-2.566 2.812-4.754 4.855-7.126 1.333-.176 2.039-.168 2.729.192-1.584 4.058-3.153 7.765-5.087 11.51-.859.081-1.352.124-1.846.166"/><path fill="#0D255E" d="M423.434 357.743c-3.132-4.979.426-9.357 1.25-14.77.069-1.192.103-1.654.445-2.134a53 53 0 0 0 1.528-.163l.3.283c-.994 5.624-2.086 11.155-3.523 16.784"/><path fill="#111C8F" d="M448.021 248.295c-.233 3.573-.767 7.322-1.132 11.392.13 1.394.091 2.468.013 3.944-.718.416-1.397.43-2.577.1-.432-2.797-.362-5.25-.293-7.705 1.23-2.518 2.459-5.037 3.99-7.731"/><path fill="#0E3C4D" d="m232.958 422.026.114 2.45c-5.552-1.066-11.119-2.483-16.865-4.202 2.906.013 5.991.328 9.765.595 2.787.353 4.886.755 6.986 1.157m-32.186-59.736c.559.583.833 1.347 1.132 2.77-1.645 3.407-3.313 6.155-4.981 8.904l-2.568.026c1.8-3.837 3.966-7.679 6.417-11.7"/><path fill="#2117A9" d="M457.567 210.869c.63.506.897 1.05 1.33 1.846.127.992.087 1.733.015 2.843-1.206 1.978-2.576 3.485-3.498 5.228-.81 1.532-1.118 3.328-1.97 4.778.306-5.001.937-9.774 1.567-14.546.73-.036 1.462-.073 2.556-.149"/><path fill="#3C0F62" d="M62.94 91.495c-4.41.172-8.791-.004-13.55-.336 3.976-.816 8.329-1.477 13.142-2.125.453.713.445 1.413.408 2.46"/><path fill="#16176C" d="M312.119 247.291c2.184 2.158 4.313 4.725 6.657 7.946.242 1.948.27 3.24.296 4.534-3.397-3.407-7.38-6.474-6.953-12.48"/><path fill="#241362" d="M247.17 154.079c.697-.02 1.393-.039 2.437-.078-1.396 1.565-3.011 4.264-4.914 4.485-3.152.365-4.702-2.352-4.736-6.024.057-.477.22-.661.473-.474 1.327.845 2.401 1.504 3.639 2.355 1.076.058 1.989-.076 2.952-.223.05-.011.15-.041.15-.041"/><path fill="#0E3C4D" d="M235.204 425.27c4.484.402 9.196 1.078 14.331 1.763.455.702.488 1.394.527 2.432-4.872-1.077-9.75-2.5-14.858-4.195m148.798 39.762c.035.696.043 1.376.04 2.395-4.433-.572-8.857-1.484-13.665-2.455 1.058-.717 2.5-1.375 4.315-2.069.541-.013.71.011 1.367.336 2.949.778 5.408 1.257 7.868 1.736 0 0 .048.04.075.057"/><path fill="#371472" d="M29.142 180.52c.713-.461 1.385-.478 2.392-.5.371 2.992.409 5.99.461 9.791.015 1.271.015 1.74-.317 2.248-.988.137-1.645.237-2.301.337-.088-.542-.175-1.083-.334-2.03-.029-3.404.014-6.402.099-9.846"/><path fill="#241362" d="M293.51 77.942c-3.094-1.323-5.868-2.718-8.827-4.343 2.443-.271 5.138-.699 7.677-.246 2.475.441 5.062 1.697 1.15 4.589m45.66 97.094c-1.48 1.578-2.96 3.156-4.714 4.903-2.695-4.019.747-6.123 3.257-8.781.38-.087.536.039.558.338.288 1.055.554 1.812.829 2.812.008.244.07.728.07.728"/><path fill="#371472" d="M132.99 143.609c-1.484-.812-2.98-2.014-4.914-3.59-.606-.684-.773-.993-.94-1.303.214-.905.43-1.81.735-3.171 4.162.773 4.397 4.37 5.118 8.064"/><path fill="#3C0F62" d="M234.964 145.434c.693-.365 1.41-.343 2.644.008 1.2 2.339 1.884 4.349 2.57 6.359l-.245.277c-3.57-.592-4.903-2.93-4.97-6.644"/><path fill="#0B2571" d="M319.155 260.069c-.11-1.591-.137-2.884-.171-4.563 1.417.886 2.84 2.158 4.535 3.954.267 1.195.263 1.867-.095 2.538l-2.474.004c-.57-.545-1.141-1.09-1.795-1.933"/><path fill="#371472" d="M227.989 128.03c.005 1.398.015 2.775.013 4.566-1.893-2.038-3.774-4.49-5.746-7.269.916-.314 1.923-.302 3.307-.285.377.005.415-.008.476.305.68 1.095 1.298 1.878 1.917 2.66 0 0 .039.004.033.024"/><path fill="#241362" d="M164.578 195.077c-.372-1.538-.473-2.912-.573-4.7 1.65 1.687 3.297 3.787 5.011 6.252-1.345-.22-2.756-.804-4.438-1.552"/><path fill="#371472" d="M228.013 133.394c1.585 1.74 3.195 3.866 4.885 6.326-3.623-.138-4.568-2.782-4.885-6.326"/><path fill="#241362" d="M344.62 161.029c-.332 1.956-.978 4.04-1.645 6.515-.02.39-.067.394-.411.408-1.028.084-1.711.154-2.462.155l-.205-.21c1.47-2.246 2.938-4.493 4.722-6.868"/><path fill="#0D255E" d="M141.992 297.989c.417-.002.834-.003 1.563-.01-.722 1.644-1.757 3.294-3.195 4.96-.404.017-.535-.113-.497-.463.072-1.059.106-1.767.152-2.806.008-.772.004-1.213-.008-1.662-.007-.008.009.006.338.008.769-.008 1.208-.017 1.647-.027"/><path fill="#16176C" d="M320.985 262.389c.672-.388 1.379-.39 2.494-.047.45.808.492 1.27.533 1.733-.014.754-.028 1.508-.059 2.639-.988-1.062-1.96-2.5-2.968-4.325"/><path fill="#0E3C4D" d="M304.278 444.243c1.687.495 3.586 1.241 5.627 2.305-1.711-.473-3.563-1.263-5.627-2.305"/><path fill="#0D255E" d="M218.63 337.938c-.705-.009-1.411-.017-2.47-.027.143-1.554.639-3.106 1.452-4.817.318-.159.479-.007.568.344.296 1.053.503 1.757.676 2.8-.098.794-.162 1.247-.225 1.7"/><path fill="#0E3C4D" d="M193.685 374.16c-.204 1.348-.716 2.869-1.5 4.605.217-1.334.704-2.883 1.5-4.604"/><path fill="#0D255E" d="M383.148 352.896a816 816 0 0 0-.116 4.64c-.68-.96-1.359-2.34-2.068-4.096-.03-.374.042-.45.412-.479.816-.03 1.262-.033 1.722-.047a.2.2 0 0 1 .05-.018M25.282 224.432c.189.795.32 1.977.258 3.334-.233-.865-.274-1.906-.258-3.334"/><path fill="#241362" d="M338.016 171.008a12.6 12.6 0 0 1 1.581-2.98c.3-.13.436.01.4.362-.608 1.171-1.178 1.989-1.748 2.807z"/><path fill="#371472" d="M220.91 121.397c.363.5.78 1.319 1.095 2.377-.414-.526-.727-1.291-1.095-2.377m-93.056 13.319c-.546-.487-1.144-1.293-1.796-2.41q.819.733 1.796 2.41"/><path fill="#0D255E" d="M268.75 337.64c-.543-.492-1.085-1.318-1.68-2.448.524.501 1.103 1.306 1.68 2.447"/><path fill="#371472" d="M135.072 146.595c-.612-.43-1.28-1.198-2.01-2.282.61.437 1.283 1.19 2.01 2.282"/><path fill="#0D255E" d="M383.152 358.275c.742.23 1.594.762 2.613 1.552-.723-.244-1.613-.746-2.613-1.552M139.31 304.841c-.45.16-.682.145-1.215-.218-.25-.783-.197-1.217.17-1.666.73-.053 1.145-.092 1.56-.13l.197.195c-.12.591-.306 1.118-.711 1.82M25.99 219.577c.043.244-.106.712-.373 1.271-.018-.288.081-.668.373-1.271"/><path fill="#0B2571" d="M17.632 309.924c.144.303.163.684.175 1.256-.105-.266-.203-.722-.175-1.256"/><path fill="#0D255E" d="M138.224 307.754c-.033-.139.143-.317.473-.607.12.176-.018.402-.473.607"/><path fill="#031CB3" d="M443.701 255.905c.262 2.575.192 5.03.284 7.822.12 1.067.079 1.796-.325 2.993-1.616 1.652-3.628 2.654-3.966 4.058-.713 2.96-.549 6.13-1.107 9.17-5.55-.944-10.24 4.286-15.656 1.23-.258-.146-1.014.808-1.619 1.024-2.727.975-5.447 2.507-8.236 2.665-6.801.387-13.643.27-20.46.05-2.59-.084-5.359-.555-7.692-1.623-8.032-3.677-7.972-3.808-13.458 3.319-3.287 4.27-7.673 4.04-10.447-.62-.671-1.13-.927-2.499-1.543-3.669-1.753-3.333-4.267-5.995-8.304-4.67-4.082 1.34-2.64 4.657-1.792 7.565.909 3.113.539 5.401-3.558 4.979 0 0-.012-.057-.14-.325-.995-.796-1.862-1.325-2.73-1.853-.525-.54-1.05-1.079-1.859-2.146L326.8 259.128c4.123-1.612 8.188-3.4 12.394-4.756 1.926-.62 4.209-.82 6.186-.448 3.977.748 7.84 2.857 11.776 2.93 17.764.33 35.539.252 53.307.06 3.717-.04 7.404-1.393 11.142-1.73 1.776-.16 3.627.831 5.468.96 1.495.105 4.128.107 4.367-.542 2-5.425 4.988-4.174 8.44-1.717 1.072.762 2.323 1.273 3.821 2.02"/><path fill="#1916B9" d="M453.07 228.044c-.54 1.5-1.081 3.001-2.094 4.937-1.28 2.3-2.086 4.165-2.893 6.03-8.268 5.155-8.865 5.074-14.873-2.681-2.082-2.688-3.665-3.602-6.748-.664-2.11 2.01-5.664 3.48-8.587 3.506-21.923.186-43.849-.07-65.774-.114-2.31-.005-4.62.465-6.93.707-3.199.335-5.768-.22-7.399-3.577-1.905-3.92-4.757-3.452-7.672-.89-5.91 5.193-8.327 5.298-14.815.805-2.263-1.567-4.595-3.033-6.978-5.154.452-6.292 5.18-5.117 9.024-5.886 2.081-.156 4.69.24 5.387-.735 3.02-4.212 7.369-3.397 11.358-3.535 5.585-.193 11.188.186 16.784.195 19.78.033 39.56-.122 59.337.122 4.206.051 8.37 1.711 12.602 2.186 2.226.25 4.981.22 6.754-.88 3.478-2.159 15.308-3.358 18.498-1.005 1.016.749 1.667 2.004 2.45 3.054.878 1.178 1.715 2.385 2.57 3.58"/><path fill="#2117A9" d="M316.979 224.984c-3.491.848-8.22-.327-8.864 5.68-.413.887-.715 1.45-1.153 2.306-4.179-4.1-.731-7.918 1.278-11.341 2.553-4.35 6.046-8.148 9.357-12.423.574.563.925 1.365 1.488 2.787 2.419 3.79 3.322 6.745-.524 9.542-.892.649-1.074 2.273-1.582 3.449"/><path fill="#111C8F" d="M326.425 259.14c5.045 8.727 9.715 17.466 14.442 26.563-.644.32-1.346.282-2.397.22-4.872-7.181-9.395-14.339-14.188-21.672-.311-.639-.353-1.101-.45-1.908-.05-1.016-.046-1.688-.05-2.69.75-.387 1.509-.445 2.643-.513m121.665-19.686c.8-2.308 1.607-4.173 2.74-6.163-.365 3.785-1.058 7.695-2.05 11.78-.427-1.607-.556-3.391-.69-5.617"/><path fill="#2315BA" d="M317.33 225.063c.157-1.255.34-2.88 1.231-3.528 3.846-2.797 2.943-5.752.594-9.22 14.16-1.97 28.422-4.298 42.772-5.13 14.408-.837 28.903-.185 43.36-.184 10.065 0 20.159-.445 30.187.17 6.347.39 12.597 2.366 19.214 3.739-.307 4.88-.938 9.653-1.515 14.91.033.87.012 1.258-.056 1.935-.901-.905-1.738-2.112-2.616-3.29-.783-1.05-1.434-2.305-2.45-3.054-3.19-2.353-15.02-1.154-18.498 1.005-1.773 1.1-4.528 1.13-6.754.88-4.233-.475-8.396-2.135-12.602-2.186-19.776-.244-39.558-.089-59.337-.122-5.596-.009-11.199-.388-16.784-.195-3.989.138-8.339-.677-11.358 3.535-.698.974-3.306.58-5.387.735"/><path fill="#066777" d="M310.137 414.838c5.293 1.287 5.677 6.617 8.373 10.052 1.29 1.643 3.12 2.862 5.086 4.334 3.584.975 6.753 2.052 10.004 2.737 1.756.37 3.653.07 5.953.084 2.773.658 5.056 1.732 7.391 1.863 5.073.285 10.173.088 16.003.088-4.23 4.741-10.622 6.213-15.339 3.504-3.936-2.26-7.591-1.974-10.671.586-5.87 4.881-12.206 5.396-19.223 3.628-2.224-.56-4.613-.47-7.377-.667-.45.012-.887.002-1.264-.256a64 64 0 0 1-2.154-1.761c-4.4-1.06-8.794-2.148-13.203-3.17-5.746-1.334-11.54-2.477-17.245-3.963-4.754-1.238-9.41-2.853-13.868-4.582 9.335-.296 18.438-.1 27.52-.45 2.762-.107 5.42-1.892 8.207-2.584 2.54-.63 5.18-.938 7.795-1.162 1.68-.143 3.393.122 5.092.204.006-1.906.129-3.822-.033-5.715-.08-.946-.681-1.848-1.047-2.77"/><path fill="#1A5B63" d="M383.697 464.704q-3.344-.314-7.385-1.43 3.344.313 7.385 1.43"/><path fill="#4211BB" d="M339.474 175.194c-.305-.158-.366-.642-.1-1.074 1.354-2.348 2.444-4.265 3.534-6.182 0 0 .047-.005.039-.029 3.77-4.592 7.55-9.16 11.793-13.619 5.713 7.332 12.474 11.38 21.714 10.312 2.31-.267 4.633-.566 6.95-.57 22.295-.044 44.589-.056 66.883.013 2.288.007 4.694.249 6.84.983 5.997 2.053 7.439 1.195 9.891-4.92.938-2.339 3.364-4.08 5.112-6.093-.682 3.053-1.364 6.105-2.077 9.571a169 169 0 0 1-4.74 11.232c-3.9.543-7.528 1.105-11.16 1.135-13.63.11-27.263-.056-40.893.073-15.929.15-31.858.44-47.783.797-5.442.121-10.884.967-16.308.821-3.148-.085-6.26-1.484-9.695-2.45"/><path fill="#6B0BC0" d="M223.71 118.094a7 7 0 0 1-.746-1.928c-.683-1.396-1.38-2.279-2.078-3.161-1.636-2.715-3.273-5.43-4.922-8.551-.012-.407.117-.538.514-.552 6.162-1.414 12.57 2.051 17.968-2.324.294-.238.987-.096 1.46.014 5.942 1.39 11.997 2.444 17.781 4.325 5.248 1.706 10.22 2.81 15.358.524.003 2.489.013 4.538.023 6.587 0 0-.03.023-.042.01-4.075 2.689-8.91 4.27-11.321 9.278-.625 1.298-3.755 1.39-5.734 2.036-.465-1.45-1.14-2.87-1.353-4.357-.537-3.728-3.753-5.064-7.459-2.793-1.824 1.119-3.262 3.455-5.133 3.786-3.726.661-7.63.317-11.81.27-.351-.12-.33-.146-.385-.474-.744-1.116-1.432-1.903-2.12-2.69"/><path fill="#570EBE" d="M235.808 136.957a22 22 0 0 1-.278-1.34c1.328-2.538 2.496-4.956 4.13-7 .676-.846 3.157-1.553 3.45-1.198 3.071 3.738 5.908 7.674 8.692 11.638.416.591.22 1.612.346 2.863.06.863.08 1.298-.271 2.112-4.096 2.119-7.688 3.42-10.776-.902-.51-.715-2.112-.65-3.21-.947-.02-.42-.04-.84-.097-1.916-.686-1.541-1.336-2.425-1.986-3.31"/><path fill="#4B137E" d="M227.897 127.7c-.56-.475-1.179-1.258-1.868-2.343.556.478 1.183 1.258 1.868 2.344"/><path fill="#033B9A" d="M427.062 328.644c-.033.819-.097 1.259-.442 2.232-1.06 2.075-1.838 3.618-2.886 5.393-.758 2.385-1.246 4.538-1.734 6.691 0 0-.013.03-.27.222-.738 1.067-1.221 1.94-1.704 2.813-.006.171-.012.342-.321.952a866 866 0 0 0-4.996 8.238c-.838-2.33-1.434-3.606-1.753-4.946-.865-3.64-2.674-4.376-5.653-2.044-1.046.82-2.125 1.597-3.162 2.428-2.074 1.66-3.857 2.417-5.749-.497-.425-.654-3.102-.71-3.995-.042-3.389 2.533-5.624 1.258-8.164-1.343-2.124-2.174-4.775-3.832-7.29-6.069-3.366-5.106-6.634-9.862-9.508-14.573 3.798 1.2 7.165 2.49 10.625 3.441 1.458.4 3.147.294 4.668.042 1.77-.293 3.464-1.426 5.203-1.453 8.485-.133 17.025-.571 25.44.218 5.022.472 8.717-.135 11.53-4.357.043.758.087 1.516.16 2.654"/><path fill="#054491" d="M379.04 343.023c2.418 1.886 5.07 3.544 7.193 5.718 2.54 2.601 4.775 3.876 8.164 1.343.893-.667 3.57-.612 3.995.042 1.892 2.914 3.675 2.158 5.749.497 1.037-.831 2.116-1.608 3.162-2.428 2.979-2.332 4.788-1.596 5.653 2.044.32 1.34.915 2.615 1.753 4.946 1.97-3.274 3.331-5.537 4.985-7.982.539 5.969.68 12.082-3.356 17.367-.574.752-1.027 1.828-1.023 2.752.023 5.372-2.118 7.267-7.327 5.017-.812-.35-2.252-.356-2.874.14-4.576 3.648-6.617.395-8.955-3.172-.281-.182-.262-.207-.347-.542-1.645-1.818-3.205-3.3-4.765-4.783-2.443-3.588-4.885-7.176-7.613-10.925-.286-.16-.323-.154-.394-.488-1.034-2.124-1.996-3.913-2.958-5.703-.295-.45-.59-.9-.996-1.92-.09-1.023-.068-1.473-.046-1.923m43.289-.063a22.6 22.6 0 0 1 1.417-6.333c.546 1.494.81 2.862 1.075 4.23-.034.462-.068.924-.157 1.73-.706.353-1.356.363-2.335.374m-2.056 2.853q.355-1.038 1.446-2.62-.353 1.04-1.446 2.62"/><path fill="#054195" d="M218.615 338.289c.08-.804.143-1.257.517-2.194a179 179 0 0 0 1.809-3.078c.528-.877 1.055-1.754 1.82-2.434.807 6.664 3.2 9.324 7.202 7.32 3.517-1.76 5.384-1.115 7.178 2.141 1.74 3.16 4.33 3.678 6.741.764 2.903-3.508 5.477-2.838 8.307-.036 4.941 4.893 6.117 4.67 9.338-1.617.527-1.028.984-2.093 1.473-3.14 1.996 3.386 3.992 6.773 6.01 10.982-.004 2.487.027 4.153-.064 5.814-.308 5.634-1.305 6.407-7.005 6.296-7.152-.138-14.335-.467-21.456.008-5.733.382-11.409-5.046-17.13-.1-.222.193-1.105-.005-1.379-.3-2.73-2.951-5.397-5.96-8.082-8.954 1.568-3.707 3.137-7.414 4.72-11.472"/><path fill="#04369C" d="M262.994 335.679c-.483 1.383-.94 2.448-1.467 3.476-3.221 6.287-4.397 6.51-9.338 1.617-2.83-2.802-5.404-3.472-8.307.036-2.41 2.914-5 2.396-6.741-.764-1.794-3.256-3.66-3.901-7.178-2.14-4.002 2.003-6.395-.657-6.977-7.533 4.924-8.63 9.675-16.967 14.866-25.021 2.94-4.561 5.033-4.038 7.8.665 5.46 9.275 11.182 18.394 17.068 27.783.27.651.27 1.099.274 1.88"/><path fill="#0B2571" d="M220.603 333.032c-.162.85-.661 1.715-1.437 2.723-.483-.56-.69-1.264-.906-2.241.663-.338 1.333-.402 2.343-.482"/><path fill="#660CC1" d="M481.925 115.555c-4.781 3.629-5.085 8.496-5.31 13.892-3.612 1.085-6.856 1.808-9.205 2.332-5.895-.973-11.293-2.552-16.715-2.637-19.8-.311-39.615-.453-59.405.064-6.488.17-11.96.76-13.454-7.305-.07-.375-.73-.64-1.116-.956.06-.491-.038-1.08.2-1.459 4.35-6.903 8.74-13.782 13.522-20.4 1.392 2.11 2.072 4.246 3.45 5.733a41 41 0 0 0 7.351 6.245c.992.657 3.15.558 4.228-.097 4.094-2.485 7.896-5.45 11.967-7.978 1.02-.633 3.452-.886 3.852-.326 3.795 5.313 9.313 4.164 14.548 4.362 8.271.313 16.58.412 24.785 1.363 3.51.407 6.473 1.705 9.673-1.149 1.101-.981 3.756-.579 5.608-.263 2.094.356 4.083 1.326 6.118 2.029-.025 2.038-.05 4.076-.097 6.55"/><path fill="#580DBF" d="M376.51 121.188c.596.073 1.257.338 1.326.713 1.494 8.065 6.966 7.475 13.454 7.305 19.79-.517 39.606-.375 59.405-.064 5.422.085 10.82 1.664 16.715 2.637 2.35-.524 5.593-1.247 9.203-1.893.361 1.476.354 2.875.071 4.884-3.896 3.88-5.198 7.954-4.493 12.728.077.646.153 1.292-.21 2.269-2.224.596-4.009.863-6.309 1.206-1.212-6.504-4.97-6.863-10.193-4.409-1.671.786-3.927.417-5.916.42-18.95.025-37.9-.043-56.849.09-2.555.018-5.505.373-7.561 1.686-3.05 1.947-5.333 1.99-8.059-.24-3.318-2.713-6.862-3.065-10.547-.494-.836.583-1.968.74-3.101 1.144l1.42-9.495c.612-8.087 6.53-12.847 11.644-18.487"/><path fill="#740AC1" d="M482.05 108.61c-2.063-.308-4.052-1.278-6.146-1.634-1.852-.316-4.507-.718-5.608.263-3.2 2.854-6.163 1.556-9.673 1.149-8.205-.95-16.514-1.05-24.785-1.363-5.235-.198-10.753.951-14.548-4.362-.4-.56-2.832-.307-3.852.326-4.071 2.528-7.873 5.493-11.967 7.978-1.079.655-3.236.754-4.228.097a41 41 0 0 1-7.35-6.245c-1.38-1.487-2.059-3.623-3.141-5.886 3.728-6.612 7.545-12.807 11.73-18.762.585 4.252 3.024 5.913 6.7 6.695 5.956 1.267 11.944 4.453 17.417-1.251.465-.486 1.583-.483 2.396-.477 9.452.059 18.904.24 28.355.202 2.566-.01 5.321-.177 7.648-1.116 3.567-1.44 5.798-.458 7.356 2.69 1.282 2.588 2.35 5.282 3.566 8.05l15.075-21.946c.014 2.053.03 4.105.063 6.6-2.981 9.828-5.98 19.213-9.008 28.993"/><path fill="#4C0FBD" d="M364.5 139.694c-.085 2.995-.536 6.008-1.054 9.476 1.133-.403 2.265-.561 3.1-1.144 3.686-2.571 7.23-2.22 10.548.495 2.726 2.23 5.008 2.186 8.059.239 2.056-1.313 5.006-1.668 7.561-1.686 18.95-.133 37.9-.065 56.849-.09 1.989-.003 4.245.366 5.916-.42 5.222-2.454 8.981-2.095 10.193 4.41 2.3-.344 4.085-.61 6.264-.883.371 1.044.347 2.094.259 3.534-1.813 2.403-4.24 4.144-5.177 6.482-2.452 6.116-3.894 6.974-9.891 4.921-2.146-.734-4.552-.976-6.84-.983-22.294-.069-44.588-.057-66.882-.014-2.318.005-4.642.304-6.95.57-9.24 1.069-16.002-2.98-21.427-10.51 1.515-4.01 3.206-7.712 5.165-11.927a31 31 0 0 1 1.56-2.217s.1-.097.139-.157c.774-.065 1.508-.071 2.608-.096"/><path fill="#8009C2" d="M491.224 72.765a5266 5266 0 0 0-15.304 22.2c-1.216-2.769-2.284-5.463-3.566-8.051-1.558-3.148-3.79-4.13-7.356-2.69-2.327.94-5.082 1.105-7.648 1.116-9.45.039-18.903-.143-28.355-.202-.813-.006-1.93-.009-2.396.477-5.473 5.704-11.461 2.518-17.417 1.251-3.676-.782-6.115-2.442-6.401-6.88a9 9 0 0 1 .007-1.805c1.256-1.097 3.031-1.65 3.57-2.789 2.46-5.193 6.909-5.288 11.712-5.477 12.84-.505 25.672-1.27 38.5-2.06 1.365-.085 2.679-1.02 4.262-1.876 2.837-.352 5.429-.386 8.444-.423 5.051-.004 9.678.004 14.306-.012 1.647-.005 3.324-.284 4.937-.065 5.43.736 6.076 2.38 2.705 7.286"/><path fill="#570EBE" d="M126.922 138.487c.38.539.548.848.867 1.374.218 1.541.283 2.866.164 4.9-2.218 3.777-4.908 4.53-8.396 3.36-1.147-.384-2.568-.154-3.827.04-3.543.544-7.061 1.715-10.6 1.755-16.75.19-33.51-.177-50.254.224-5.989.143-11.94 1.888-17.907 2.902.048-4.71.095-9.422.415-14.845 1.393-3.877 2.515-7.041 3.846-9.926 3.16 1.422 6.09 3.483 9.063 3.545 11.76.245 23.532-.188 35.3-.265 7.327-.048 14.679.44 21.966-.066 2.169-.15 4.36-2.656 6.15-4.47.934-.948 1.017-2.736 1.485-4.145 3.838 5.13 7.676 10.258 11.728 15.617"/><path fill="#660CC1" d="M115.055 122.564c-.329 1.715-.412 3.503-1.347 4.451-1.788 1.814-3.98 4.32-6.149 4.47-7.287.506-14.64.018-21.965.066-11.769.077-23.541.51-35.301.265-2.972-.062-5.903-2.123-9.05-3.973.132-5.753.46-10.797 1.197-15.828 10.079 1.334 19.739 2.738 29.425 3.926 3.057.375 5.804-.203 7.544-3.5 1.586-3.007 4.417-2.729 5.994-.199 3.053 4.894 7.358 4.91 12.208 4.368 3.786-.424 7.618-.433 11.768-.638l1.694-.062c1.281 2.116 2.563 4.232 3.982 6.654"/><path fill="#740AC1" d="M41.912 100.964c-.376-4.171 1.58-6.098 5.717-6.201 9.084-.225 18.169-.475 27.245-.89 2.222-.101 4.414-.874 6.88-1.608 6.21-.238 12.518-1.622 17.175 4.751.11 2.832.096 4.902-.295 6.905-4.873-1.822-9.068-2.486-13.613.571-1.458.981-4.703-.436-7.039-1.086-2.592-.722-5.087-2.636-7.61-2.612-9.452.09-18.899.759-28.373.95-.047-.434-.067-.607-.087-.78"/><path fill="#6D13A9" d="M99.012 103.989c.013-2.07.027-4.141.064-6.658 1.642 1.66 3.26 3.767 4.79 6.405-.322.774-.557 1.016-1.123 1.139-1.464-.376-2.598-.63-3.731-.886"/><path fill="#62159F" d="M103.075 104.995c.234-.243.469-.485.878-.913 1.798 2.558 3.422 5.3 5.073 8.453.029.411-.13.561-.452.448-2.047-2.738-3.773-5.363-5.5-7.988"/><path fill="#62159F" d="M111.007 115.605c-.386.321-.837.338-1.64.005-.39-1.071-.431-1.792-.472-2.514l.241-.227c.656.76 1.23 1.595 1.87 2.736"/><path fill="#0228AA" d="M345.877 290.545c4.042.075 4.412-2.213 3.503-5.326-.849-2.908-2.29-6.225 1.792-7.565 4.037-1.325 6.55 1.337 8.304 4.67.616 1.17.872 2.54 1.543 3.668 2.774 4.66 7.16 4.891 10.447.62 5.486-7.126 5.426-6.995 13.458-3.318 2.333 1.068 5.102 1.54 7.693 1.623 6.816.22 13.658.337 20.459-.05 2.789-.158 5.509-1.69 8.236-2.665.605-.216 1.361-1.17 1.62-1.024 5.415 3.056 10.104-2.174 15.693-.87.46.883.52 1.362.578 1.841-1.686 6.038-3.372 12.076-5.45 18.617-2.72 1.39-4.996 2.792-7.388 3.03-2.738.274-5.576-.71-8.376-.752-8.328-.122-16.663.106-24.985-.144-2.53-.076-5.304-.782-7.476-2.043-3.424-1.99-5.168-1.175-6.479 2.257-.45 1.178-1.182 2.492-2.175 3.177-3.903 2.688-6.826 1.136-8.045-3.6-.41-1.593-2.115-2.852-3.228-4.263-.969.949-2.505 1.744-2.811 2.872-1.63 6.005-1.523 6.033-7.883 3.69-2.992-4.699-5.983-9.398-9.03-14.445"/><path fill="#022EA5" d="M354.918 305.361c6.349 1.972 6.242 1.944 7.872-4.06.306-1.13 1.842-1.924 2.81-2.873 1.114 1.411 2.819 2.67 3.229 4.262 1.219 4.737 4.142 6.29 8.045 3.6.993-.684 1.725-1.998 2.175-3.176 1.31-3.432 3.055-4.247 6.479-2.257 2.172 1.261 4.946 1.967 7.476 2.043 8.322.25 16.657.022 24.985.144 2.8.041 5.638 1.026 8.376.753 2.392-.24 4.668-1.64 7.3-2.66-.45 1.731-1.203 3.594-2.563 5.787-2.106 2.86-4.082 5.234-4.98 7.962-1.065 3.241-2.037 4.894-5.908 3.613-3.073-1.017-6.483-.992-9.731-1.507-13.22-2.095-26.742 3.905-39.838-1.488a.67.67 0 0 0-.49.01c-5.2 2.48-7.826-.616-10.347-4.508-.837-1.292-2.566-2.006-3.887-2.984 0 0-.423-.032-.634-.054-.26-.76-.309-1.498-.37-2.607m10.986 3.66.203-.028s-.196-.055-.203.029"/><path fill="#0331A2" d="M355.983 308.38c1.259.62 2.988 1.334 3.825 2.626 2.521 3.892 5.146 6.987 10.348 4.509a.67.67 0 0 1 .489-.011c13.096 5.393 26.618-.607 39.838 1.488 3.248.515 6.658.49 9.73 1.507 3.872 1.28 4.844-.372 5.91-3.613.897-2.728 2.873-5.102 4.737-7.725-1.037 5.948-2.439 11.988-3.9 18.428-2.872 4.623-6.567 5.23-11.588 4.758-8.416-.79-16.956-.35-25.441-.218-1.739.027-3.433 1.16-5.203 1.453-1.521.252-3.21.359-4.668-.042-3.46-.951-6.827-2.241-10.788-3.725-1.813-1.442-3.07-2.553-4.326-3.665-2.967-5.137-5.934-10.275-8.963-15.77"/><path fill="#111C8F" d="M439.458 281.878c-.314-.208-.373-.687-.47-1.526.157-3.443-.007-6.614.706-9.574.338-1.404 2.35-2.406 3.949-3.693-1.08 4.772-2.505 9.647-4.185 14.793"/><path fill="#065386" d="M191.896 387.743c1.448-2.86 2.897-5.721 4.861-8.514 3.378 1.716 5.437 6.42 9.727 2.863 5.789-4.799 12.273-4.975 18.507-.494 1.52 1.093 3.535 2.134 5.316 2.122 10.614-.073 21.237-.25 31.832-.84 4.922-.273 9.228-3.075 14.789.417 2.966 1.863 8.843-.908 13.406-1.588.802.584 1.603 1.17 2.542 2.447.806 4.395 1.474 8.096 1.96 12.098-3.71 6.741-5.356 6.947-10.25 1.551-.334-.37-.616-.79-.97-1.138-3.106-3.063-5.78-3.04-8.16.727-2.323 3.677-4.608 5.004-8.316 1.95-.721-.595-1.84-.992-2.776-.994-10.126-.028-20.45-1.18-30.326.412-11.009 1.774-21.484.654-32.04-1.439-4.018-.796-7.037-1.081-9.373 2.973-.58 1.006-2.622 1.171-3.992 1.723-.201-1.501-.743-3.053-.527-4.49.337-2.243 1.187-4.408 1.82-6.606 0 0 .055.032.288-.152.716-1.131 1.199-2.08 1.682-3.028"/><path fill="#064C8B" d="M290.224 381.381c-4.453 1.008-10.33 3.78-13.296 1.916-5.561-3.492-9.867-.69-14.789-.416-10.595.59-21.218.766-31.832.839-1.78.012-3.796-1.03-5.316-2.122-6.234-4.481-12.718-4.305-18.507.494-4.29 3.557-6.349-1.147-9.456-3.07-.196-1.6-.147-2.925-.101-4.654 1.664-3.153 3.332-5.901 5.033-9.006.458-.401.883-.446 1.66-.1 1.56 7.818 3.08 8.651 9.778 6.023 1.229-.482 3.037-.378 4.255.17 3.604 1.626 6.208 1.526 8.21-2.495.574-1.152 2.925-2.108 4.386-2.012 7.225.473 14.412 1.682 21.638 1.944 6.613.24 13.321.067 19.863-.832 3.556-.489 5.514-.707 6.668 3.293 1.028 3.564 3.068 3.763 4.865.224 2.276 3.159 4.553 6.318 6.94 9.804"/><path fill="#054491" d="M283.218 371.236c-1.732 3.88-3.772 3.68-4.8.117-1.154-4-3.112-3.782-6.668-3.293-6.542.899-13.25 1.072-19.863.832-7.226-.262-14.413-1.471-21.638-1.944-1.461-.096-3.812.86-4.385 2.012-2.003 4.021-4.607 4.121-8.21 2.496-1.219-.55-3.027-.653-4.256-.17-6.698 2.627-8.218 1.794-9.459-6.038 2.526-5.144 5.084-9.88 7.693-14.95.544-.375 1.037-.418 1.896-.498 3.05 2.954 5.718 5.964 8.448 8.914.274.296 1.157.494 1.38.301 5.72-4.946 11.396.482 17.13.1 7.12-.475 14.303-.146 21.455-.008 5.7.11 6.697-.662 7.005-6.296.09-1.66.06-3.327.096-5.45 4.711 7.538 9.411 15.536 14.176 23.875"/><path fill="#0E4881" d="M295.018 395.954c-.668-3.702-1.336-7.403-1.998-11.527 1.38.855 2.756 2.133 4.422 3.522 2.665 5.16 5.04 10.208 7.104 15.53-1.727-.805-3.194-1.821-4.546-2.974-1.71-1.46-3.325-3.03-4.982-4.551"/><path fill="#1916B9" d="M178.162 238.201c-.01.42-.02.838-.33 1.744-1.815 2.014-3.328 3.542-4.904 4.71-2.269-6.001-4.534-7.014-11.365-6.448-9.418.782-18.862 1.636-28.3 1.713-27.768.224-55.538.034-83.307.146-3.08.013-6.268.58-9.206 1.516-4.344 1.385-7.178.34-8.278-4.071-.513-2.056-.332-4.286-.466-6.894.019-3.179.037-5.899.48-8.634 7.399-.338 14.373-.909 21.349-.939 25.813-.111 51.628-.159 77.44.019 8.971.062 17.933.927 26.905 1.262 3.28.123 6.578-.224 10.128-.17 2.215.698 4.192 1.708 6.121 1.626 5.208-.223 7.247 2.345 5.558 7.36-.773 2.298-1.226 4.704-1.825 7.06"/><path fill="#2D13B9" d="M161.348 194.511c.49.089.982.177 1.83.377 2.808 3.85 5.258 7.59 7.8 12 .062 1.156.03 1.641-.368 2.165-8.785-.326-17.202-.97-25.62-1.004-31.558-.125-63.116-.155-94.671.041-6.083.038-12.157 1.255-18.244 1.46.035-5.83.078-11.192.46-16.446 4.626 1.36 8.903 3.667 13.198 3.701 36.472.295 72.948.216 109.421.075 2.068-.008 4.13-1.544 6.194-2.369"/><path fill="#2117A9" d="M170.977 209.014c.031-.485.063-.97.13-1.818 3.957 5.095 7.995 10.473 11.754 16.04 2.354 3.486 2.642 7.025-.88 10.25-1.312 1.2-2.188 2.88-3.54 4.528.32-2.17.773-4.575 1.546-6.872 1.689-5.016-.35-7.584-5.558-7.361-1.93.082-3.906-.928-6.084-1.981 1.515-2.676 3.253-4.81 5.13-7.114z"/><path fill="#111C8F" d="M172.99 245.015c1.514-1.528 3.027-3.056 4.813-4.757a64 64 0 0 1-4.223 6.909c-.318.138-.453-.018-.521-.426a19 19 0 0 1-.068-1.726"/><path fill="#054491" d="M101.212 358.656c-.663.855-1.25 1.38-2.035 2.123-3.015 1.118-6.037 1.648-8.577 3.051-1.555.86-3.01 2.917-3.4 4.682-1.313 5.935-8.45 8.854-13.608 5.42-1.437-.957-3.282-1.718-4.975-1.794-4.182-.186-7.512-1.362-11.315-3.644-3.766-2.26-9.578-1.11-14.975-1.43-1.181-.009-1.88-.043-3.088-.412-2.216-3.725-5.23-4.416-8.713-4.823-7.014-.82-9.12-4.044-7.197-10.888 8.648-.423 16.918-.834 25.194-.974.996-.017 2.163 1.299 3.002 2.222 3.009 3.314 6.454 3.68 9.69.858 4.978-4.342 10.978-4.204 16.02-2.16 7.299 2.957 12.684-1.901 18.951-2.798 2.552-.365 6.067-2.11 6.998-4.189 3.022-6.745 9.7-8.75 14.704-12.877-4.326 7.336-8.628 14.687-12.995 22-1.094 1.832-2.398 3.538-3.681 5.633"/><path fill="#790AC2" d="M254.85 79.791c8.746.047 17.495-.008 26.237.21 2.19.054 4.36.982 6.8 1.804a54.5 54.5 0 0 1-6.805 10.101c-3.226-.023-5.724-.496-8.182-.337-4.398.285-9.292-.125-13.046 1.687-7.425 3.582-15.12 3.358-22.842 3.534-1.59.036-3.84-1.363-4.722-2.768-3.528-5.622-4.16-5.663-8.348-.395-2.379 2.993-5.269 5.578-8.293 8.36-.853.043-1.34.072-1.828.1-1.54-2.443-3.08-4.886-4.779-7.618-.86-2.945-1.563-5.601-2.443-8.928 1.516-.179 3.215-.54 4.916-.552 8.16-.059 16.371.537 24.462-.208 5.927-.545 11.696-2.806 17.986-4.61.452-.307.887-.38.887-.38"/><path fill="#4B137E" d="M254.877 79.476c-.027.315-.462.388-.68.425a275 275 0 0 1-8.85-.209c2.667-.873 5.788-1.684 9.354-2.457.365.667.284 1.296.176 2.24"/><path fill="#07607C" d="M310.102 414.852c.4.908 1.001 1.81 1.082 2.756.162 1.893.039 3.809.033 5.715-1.699-.082-3.413-.347-5.092-.204-2.615.224-5.255.532-7.795 1.162-2.786.692-5.445 2.477-8.206 2.583-9.083.35-18.186.155-27.764.184-4.112-.034-7.742-.081-11.823-.143-4.722-5.393-10.735-5-17.118-4.892-2.56-.389-4.66-.79-7.173-1.26-5.375-1.983-10.38-3.795-15.284-5.847-2.964-1.24-5.772-2.854-8.424-4.596.89-.354 1.556-.382 2.215-.472 7.027-.965 13.838-1.536 19.304 4.66.881.999 5.046.976 5.458.214 2.97-5.478 7.897-4.675 12.679-4.72 14.07-.133 28.14-.34 42.21-.408 1.425-.007 2.948.527 4.267 1.149 7.566 3.57 11.655 2.947 17.412-2.819.631 1.112 1.262 2.223 2.004 3.973.734 1.444 1.356 2.25 1.979 3.056 0 0 0-.076.036-.09"/><path fill="#086C73" d="M307.079 439.277q.648.38 1.775 1.504-.648-.38-1.775-1.504"/><path fill="#4910BD" d="M36.964 153.502c5.973-1.474 11.923-3.219 17.912-3.362 16.743-.401 33.504-.035 50.255-.224 3.538-.04 7.056-1.21 10.6-1.756 1.258-.193 2.68-.423 3.826-.038 3.488 1.169 6.178.416 8.399-2.962 5.395 4.274 9.681 9.335 9.092 17.749.62 3.51 1.24 6.188 2.107 9.937-5.787-.965-10.938-1.884-16.11-2.658-2.26-.338-4.58-.637-6.843-.495-3.95.248-7.875 1.21-11.815 1.244-16.63.147-33.264-.079-49.893.135-6.278.08-12.26-.266-17.538-4.084.001-4.342.002-8.684.008-13.486"/><path fill="#3C11BB" d="M36.946 167.416c5.288 3.39 11.27 3.737 17.548 3.656 16.629-.214 33.263.012 49.893-.135 3.94-.035 7.865-.996 11.815-1.244 2.264-.142 4.584.157 6.843.495 5.172.774 10.323 1.693 16.11 2.658-.868-3.75-1.487-6.427-2.113-9.5 3.164 2.138 6.333 4.672 9.805 7.347 2.593 3.878 4.882 7.616 7.122 12.072-2.331 4.465-8.291 7.29-11.364 5.144-5.356-3.742-11.263-2.7-16.863-2.703-23.786-.013-47.577.293-71.354.918-6.52.17-13.001 1.85-19.5 2.837.682-7.04 1.365-14.078 2.058-21.545"/><path fill="#3312BB" d="M34.61 189.076c6.777-1.102 13.258-2.781 19.778-2.952 23.777-.625 47.568-.931 71.354-.918 5.6.003 11.507-1.039 16.863 2.703 3.073 2.146 9.033-.68 11.407-4.8 2.462 3.331 4.831 7.038 7.268 11.073-1.997 1.154-4.058 2.69-6.126 2.698-36.473.14-72.949.22-109.42-.075-4.296-.034-8.573-2.34-13.247-3.945-.388-.351-.478-.84-.478-.84 0-.468.001-.938.012-1.761.778-.592 1.544-.83 2.589-1.183"/><path fill="#5E0FB9" d="M41.571 100.981c.361.156.381.33.419 1.217.025 3.744.033 6.774.042 9.804-.329 5.044-.657 10.088-.998 15.561a138 138 0 0 1-3.624 10.166c-.331-1.176-.417-2.597-.565-4.445-.002-2.106.06-3.787.435-6.138.738-6.538 1.163-12.405 1.588-18.273a538 538 0 0 1 .267-7.33c.731-.465 1.413-.505 2.436-.562m179.372 12.342c.64.564 1.338 1.447 1.946 2.585-.69-.585-1.29-1.425-1.946-2.585m2.851 5.087c.605.47 1.293 1.258 2.047 2.365-.611-.47-1.287-1.26-2.047-2.366"/><path fill="#6B0BC0" d="M213.953 102.355c.356-.296.843-.325 1.703-.043.39.742.408 1.173.425 1.604l-.194.198c-.644-.452-1.223-.972-1.934-1.759"/><path fill="#065A80" d="M306.043 407.571c-5.717 6.109-9.806 6.731-17.372 3.162-1.319-.622-2.842-1.156-4.268-1.15-14.07.07-28.14.276-42.209.409-4.782.045-9.71-.758-12.679 4.72-.412.762-4.577.785-5.458-.215-5.466-6.195-12.277-5.624-19.304-4.66-.659.091-1.326.12-2.426.208-3.459.037-6.48.043-9.962.075-3.222-.545-5.982-1.116-9.068-2.314-.36-3.046-.397-5.465-.433-7.883.632-1.772 1.265-3.544 2.02-5.648 1.562-1.259 3.003-2.185 4.743-3.231-.334 2.077-1.184 4.242-1.52 6.484-.217 1.438.325 2.99.526 4.49 1.37-.551 3.412-.716 3.992-1.722 2.336-4.054 5.355-3.77 9.373-2.973 10.556 2.093 21.031 3.213 32.04 1.439 9.877-1.592 20.2-.44 30.326-.412.936.002 2.055.4 2.776.993 3.708 3.055 5.993 1.728 8.317-1.949 2.38-3.766 5.053-3.79 8.16-.727.353.349.635.769.97 1.138 4.893 5.396 6.539 5.19 10.25-1.551 1.838 1.222 3.453 2.792 5.163 4.25 1.352 1.154 2.819 2.17 4.559 3.344.697 1.191 1.07 2.285 1.484 3.723"/><path fill="#066777" d="M309.99 414.641q-.821-.754-1.863-2.426c.548.501 1.168 1.313 1.863 2.426"/><path fill="#740AC1" d="M216.478 103.902c-.414-.417-.432-.848-.457-1.604 2.652-3.093 5.542-5.678 7.921-8.67 4.188-5.269 4.82-5.228 8.348.394.882 1.405 3.133 2.804 4.722 2.768 7.722-.176 15.417.048 22.842-3.534 3.754-1.812 8.648-1.402 13.046-1.687 2.458-.16 4.956.314 7.898.523-1.17 3.13-2.8 6.238-4.93 9.766-2.605 1.66-4.71 2.903-6.816 4.145-5.145 2.724-10.117 1.62-15.365-.086-5.784-1.881-11.839-2.935-17.781-4.325-.473-.11-1.166-.252-1.46-.014-5.399 4.375-11.806.91-17.968 2.324"/><path fill="#6D13A9" d="M269.045 106.441c2.112-1.68 4.218-2.922 6.627-4.305-1.806 3.433-3.914 7.005-6.313 10.735-.3-1.892-.31-3.941-.314-6.43"/><path fill="#0331A2" d="M132.147 307.184c-2.448 3.835-4.959 7.63-7.309 11.524-.821 1.362-1.245 2.963-1.897 4.83-1.307 1.852-2.568 3.33-4.33 5.139-4.41 2.01-8.282 3.79-12.25 5.32-1.595.615-4.036 1.506-4.957.797-1.241-.956-1.958-3.353-1.905-5.101.223-7.352-1.902-9.531-8.274-5.989-7.566 4.206-14.833 6.064-23.1 3.334-.303-.1-.663-.027-.995-.027-9.486 0-18.973-.062-28.458.047-2.119.025-4.781-.037-6.243 1.13-4.38 3.498-7.029 1.679-9.493-2.581-.11-2.852-.213-5.25-.316-7.65.553-4.218 1.107-8.435 1.976-12.478.365 1.005.163 1.967.514 2.641.75 1.443 1.786 2.737 2.705 4.091.72-1.335 1.607-2.611 2.12-4.022.612-1.684.906-3.485 1.154-4.489 3.756 1.273 6.725 3.123 9.706 3.143 12.477.083 24.957-.42 37.438-.607 1.784-.027 3.852.026 5.322.862 10.453 5.949 21.023.636 31.483.282 2.945-.099 4.902-.931 6.33 2.337 1.186 2.718 2.69 3.501 5.063.527 1.238-1.552 3.769-2.073 5.716-3.06"/><path fill="#033B9A" d="M22.942 326.059c2.458 3.808 5.107 5.627 9.487 2.13 1.462-1.168 4.124-1.106 6.243-1.13 9.485-.11 18.972-.049 28.458-.048.332 0 .692-.073.994.027 8.268 2.73 15.535.872 23.1-3.334 6.373-3.542 8.498-1.363 8.275 5.989-.053 1.748.664 4.145 1.905 5.101.92.709 3.362-.182 4.957-.797 3.968-1.53 7.84-3.31 12.14-5.009.156.501-.08 1.021-.464 1.788-5.153 4.375-11.83 6.38-14.853 13.124-.93 2.079-4.446 3.824-6.998 4.19-6.267.896-11.652 5.754-18.95 2.796-5.043-2.043-11.043-2.181-16.02 2.16-3.237 2.823-6.682 2.457-9.691-.857-.84-.923-2.006-2.239-3.002-2.222-8.276.14-16.546.55-25.193.501-.38-8.388-.384-16.399-.388-24.41"/><path fill="#4B137E" d="M361.528 140.096q-.307.63-1.3 1.7c.203-.421.64-.986 1.3-1.7"/><path fill="#031CB3" d="M154.202 275.737c-.742 1.128-1.37 1.93-2.433 3.121-2.686 1.086-5.34 2.886-7.103 2.244-3.433-1.252-5.648-.271-8.216 1.602-1.96 1.43-4.188 3.2-6.423 3.4-5.71.509-11.492.276-17.244.248-20.624-.097-41.249-.385-61.872-.276-8.166.043-16.24.226-23.918-3.103.067-8.364.134-16.728.52-25.693 2.756-1.116 5.218-2.133 7.628-2.024 3.584.163 7.117 1.53 10.697 1.66 7.643.275 15.307.255 22.955.055 30.182-.787 60.402 1.677 90.565-1.048 1.208-.11 2.503.752 3.757 1.16-2.933 6.11-5.866 12.22-8.913 18.654"/><path fill="#0C18B7" d="M163.44 256.992c-1.58-.317-2.874-1.178-4.082-1.07-30.163 2.726-60.383.262-90.565 1.05-7.648.199-15.312.219-22.955-.057-3.58-.129-7.113-1.496-10.697-1.659-2.41-.11-4.872.908-7.595 1.552.641-5.412 1.732-10.934 2.424-16.506.345-2.78-.04-5.653-.17-8.958-.076-.474.02-.473.413-.417.86.086 1.326.117 1.793.147.134 2.151-.047 4.38.466 6.437 1.1 4.412 3.934 5.456 8.278 4.07 2.938-.936 6.127-1.502 9.206-1.515 27.769-.112 55.539.078 83.306-.146 9.439-.077 18.883-.931 28.3-1.713 6.832-.566 9.097.447 11.366 6.449.063.798.063 1.238.063 2.007-3.076 3.633-6.152 6.935-9.552 10.33"/><path fill="#62159F" d="M38.583 109.131c-.14 5.61-.565 11.477-1.264 17.595.144-5.613.561-11.474 1.264-17.595"/><path fill="#411799" d="M237.887 142.552c1.102-.073 2.703-.137 3.214.578 3.088 4.323 6.68 3.02 10.76 1.23-1.258 2.986-2.872 6.025-4.588 9.391-.103.328-.202.358-.633.346-1.199.01-1.967.032-2.734.054a223 223 0 0 1-3.476-2.163c-.938-2.197-1.622-4.207-2.463-6.531-.132-1.055-.108-1.796-.08-2.905"/><path fill="#0228AA" d="M26.91 283.274c7.762 3.028 15.835 2.845 24.001 2.802 20.623-.109 41.248.18 61.872.276 5.752.028 11.534.26 17.244-.248 2.235-.2 4.464-1.97 6.423-3.4 2.568-1.873 4.783-2.854 8.216-1.602 1.763.642 4.417-1.158 6.981-1.957-2.927 5.007-6.168 10.118-9.806 15.716a44 44 0 0 0-1.825 3.153s-.016-.014-.357.074c-3.735 1.084-4.655 3.656-4.63 6.828 0 0-.086.015-.416.116-1.07.758-1.808 1.415-2.546 2.073 0 0 .057.02.068.05-1.935 1.016-4.466 1.537-5.704 3.089-2.372 2.974-3.877 2.19-5.064-.527-1.427-3.268-3.384-2.436-6.329-2.337-10.46.354-21.03 5.667-31.483-.282-1.47-.836-3.538-.889-5.322-.862-12.48.186-24.96.69-37.438.607-2.981-.02-5.95-1.87-9.706-3.143-.248 1.004-.542 2.805-1.154 4.489-.513 1.411-1.4 2.687-2.12 4.022-.919-1.354-1.955-2.648-2.705-4.09-.35-.675-.15-1.637-.237-2.912.032-6.377.102-12.31.183-18.71.597-1.285 1.183-2.104 1.853-3.225"/><path fill="#0E4881" d="M22.936 325.607c.01 8.462.015 16.473.019 24.956-1.549 7.222.557 10.445 7.571 11.266 3.484.407 6.497 1.098 8.363 4.79-.922.512-2.005.722-3.401 1.025-1.421-.753-2.408-1.971-3.66-2.377-3.644-1.183-7.395-2.041-11.475-3.048-.371-.021-.48-.129-.525-.567-.154-1.474-.262-2.508-.313-4.015.17-6.871.281-13.27.393-19.67.115-6.271.229-12.543.364-19.258.605-.528 1.19-.611 2.062-.724.39 2.371.493 4.77.602 7.622"/><path fill="#0228AA" d="M343.1 288.3c.72.248 1.587.777 2.611 1.579-.716-.25-1.589-.774-2.61-1.578"/><path fill="#1A5B63" d="M182.557 400.051c.343 2.29.38 4.709.404 7.582-1.308-.081-2.604-.619-3.9-1.156 1.064-2.1 2.127-4.199 3.496-6.426"/><path fill="#0E4881" d="M364.912 324.475c1.29.787 2.547 1.898 3.967 3.294 3.43 5.04 6.698 9.797 10.063 14.903.076.801.054 1.251.01 2.04-3.282-3.723-6.493-7.825-9.827-11.823-1.219-1.461-2.731-2.677-4.432-4.114-.153-1.398.016-2.687.219-4.3"/><path fill="#2117A9" d="M32.006 230.617c-.467.427-.934.396-1.751.333-.532-12.585-.714-25.137-.887-38.122.665-.532 1.322-.632 2.31-.77.331-.037.421.451.47.695.005 5.605-.038 10.966-.087 17.255-.003 4.615-.001 8.302 0 11.99-.018 2.72-.036 5.44-.055 8.619"/><path fill="#111C8F" d="M140.345 298.016c.147-.89.623-1.779 1.35-2.846.262.57.275 1.32.292 2.444-.434.385-.873.394-1.642.402m-4.98 6.903c-.36-3.175.559-5.747 4.301-6.823.353.36.357.802.096 1.753a169 169 0 0 1-1.811 3.122c-.053.435-.106.87-.203 1.628-.712.324-1.379.323-2.383.32"/><path fill="#0331A2" d="M132.371 307.033c.434-.586 1.173-1.243 2.199-1.997-.44.578-1.167 1.252-2.199 1.997"/><path fill="#4C0FBD" d="M472.471 147.259c-.985-4.535.317-8.61 4.207-12.07.518.266.765.724 1.134 1.412-.058 1.214-.238 2.198-.597 3.52-1.607 2.524-3.035 4.712-4.744 7.138"/><path fill="#065A80" d="M191.636 387.944c-.223.747-.706 1.696-1.453 2.832.222-.751.708-1.69 1.453-2.832"/><path fill="#0B2571" d="M19.576 337.994c.22 6.373.109 12.772-.353 19.617-.96.386-1.571.325-2.181.264.049-6.244.098-12.489.186-19.175.698-.52 1.357-.6 2.348-.706"/><path fill="#0E335D" d="M380.005 347.166c1.04 1.49 2.001 3.28 3.021 5.414-.388.348-.834.35-1.614.343-.717-1.826-1.101-3.642-1.407-5.757"/><path fill="#0E4881" d="M391.111 364.317c1.496 1.148 3.056 2.63 4.708 4.44-1.486-1.152-3.064-2.629-4.708-4.44"/><path fill="#5E0FB9" d="M235.875 137.292c.583.55 1.233 1.434 1.94 2.66-.586-.547-1.23-1.436-1.94-2.66"/><path fill="#0E335D" d="M17.072 358.228c.58-.292 1.19-.231 2.093-.144.4 1.06.509 2.094.605 3.518-.897-.748-1.782-1.885-2.698-3.374"/><path fill="#0E4881" d="M425.129 340.84c-.573-1.35-.837-2.719-1.113-4.445.766-1.9 1.544-3.444 2.555-5.19.197 2.737.161 5.676.105 9.043-.426.477-.832.525-1.547.591"/><path fill="#371472" d="M244.069 154.343c.604-.214 1.372-.236 2.52-.234-.531.158-1.444.292-2.52.234m98.495 13.609c-.746 1.903-1.836 3.82-3.2 5.924-.539-.568-.805-1.325-1.093-2.38.548-1.117 1.118-1.935 1.794-3.036.788-.354 1.471-.424 2.499-.508"/><path fill="#0B2571" d="M138.265 302.957c.2-.857.716-1.728 1.484-2.778.22.53.186 1.238.114 2.297-.453.39-.869.428-1.598.481"/><path fill="#6B0BC0" d="M42.44 112.015c-.417-3.043-.425-6.073-.424-9.557 9.457-.905 18.904-1.574 28.356-1.664 2.523-.024 5.018 1.89 7.61 2.612 2.336.65 5.581 2.067 7.04 1.086 4.544-3.057 8.739-2.393 13.612-.571 1.511.323 2.645.578 4.11.954 2.057 2.745 3.783 5.37 5.83 8.108.362.835.402 1.556.455 2.639-3.8.555-7.632.564-11.418.988-4.85.543-9.155.526-12.208-4.368-1.577-2.53-4.408-2.808-5.994.199-1.74 3.297-4.487 3.875-7.544 3.5-9.686-1.188-19.346-2.592-29.425-3.926"/><path fill="#0228AA" d="M365.907 308.98c.003-.042.199.013.199.013s-.203.029-.2-.013"/><path fill="#2315BA" d="M32.486 221.983c-.426-3.673-.428-7.36-.416-11.506 6.092-1.132 12.166-2.349 18.249-2.387 31.555-.196 63.113-.166 94.67-.04 8.42.032 16.836.677 25.62 1.003 1.263 1.995 2.16 4.028 2.866 5.633-1.877 2.304-3.615 4.438-5.39 6.927-3.327.488-6.625.835-9.905.712-8.972-.335-17.934-1.2-26.904-1.262-25.813-.178-51.628-.13-77.441-.019-6.976.03-13.95.601-21.35.939"/></svg>